<?xml version="1.0" encoding="UTF-8"?>
<svg xmlns="http://www.w3.org/2000/svg" xmlns:xlink="http://www.w3.org/1999/xlink" width="35px" height="35px" viewBox="0 0 35 35" version="1.1">
<g id="surface1">
<path style="fill:none;stroke-width:1.5;stroke-linecap:round;stroke-linejoin:round;stroke:rgb(38.039216%,40.392157%,41.960784%);stroke-opacity:1;stroke-miterlimit:4;" d="M 23.217857 1 L 5.662054 1 L 5.662054 34.25 L 23.217857 34.25 Z M 23.217857 1 " transform="matrix(0.795455,0,0,1,0,0)"/>
<path style="fill:none;stroke-width:1.5;stroke-linecap:round;stroke-linejoin:round;stroke:rgb(38.039216%,40.392157%,41.960784%);stroke-opacity:1;stroke-miterlimit:4;" d="M 38.038393 12.449219 L 23.217857 12.449219 L 23.217857 34.25 L 38.038393 34.25 Z M 38.038393 12.449219 " transform="matrix(0.795455,0,0,1,0,0)"/>
<path style="fill:none;stroke-width:1.5;stroke-linecap:round;stroke-linejoin:round;stroke:rgb(38.039216%,40.392157%,41.960784%);stroke-opacity:1;stroke-miterlimit:4;" d="M 17.148214 26.289062 L 11.741518 26.289062 L 11.741518 34.25 L 17.148214 34.25 Z M 17.148214 26.289062 " transform="matrix(0.795455,0,0,1,0,0)"/>
<path style="fill:none;stroke-width:1.5;stroke-linecap:round;stroke-linejoin:round;stroke:rgb(38.039216%,40.392157%,41.960784%);stroke-opacity:1;stroke-miterlimit:4;" d="M 10.091518 5.140625 L 18.798214 5.140625 " transform="matrix(0.795455,0,0,1,0,0)"/>
<path style="fill:none;stroke-width:1.5;stroke-linecap:round;stroke-linejoin:round;stroke:rgb(38.039216%,40.392157%,41.960784%);stroke-opacity:1;stroke-miterlimit:4;" d="M 10.091518 8.480469 L 18.798214 8.480469 " transform="matrix(0.795455,0,0,1,0,0)"/>
<path style="fill:none;stroke-width:1.5;stroke-linecap:round;stroke-linejoin:round;stroke:rgb(38.039216%,40.392157%,41.960784%);stroke-opacity:1;stroke-miterlimit:4;" d="M 10.091518 11.828125 L 18.798214 11.828125 " transform="matrix(0.795455,0,0,1,0,0)"/>
<path style="fill:none;stroke-width:1.5;stroke-linecap:round;stroke-linejoin:round;stroke:rgb(38.039216%,40.392157%,41.960784%);stroke-opacity:1;stroke-miterlimit:4;" d="M 10.091518 15.179688 L 18.798214 15.179688 " transform="matrix(0.795455,0,0,1,0,0)"/>
<path style="fill:none;stroke-width:1.5;stroke-linecap:round;stroke-linejoin:round;stroke:rgb(38.039216%,40.392157%,41.960784%);stroke-opacity:1;stroke-miterlimit:4;" d="M 10.091518 18.519531 L 18.798214 18.519531 " transform="matrix(0.795455,0,0,1,0,0)"/>
<path style="fill:none;stroke-width:1.5;stroke-linecap:round;stroke-linejoin:round;stroke:rgb(38.039216%,40.392157%,41.960784%);stroke-opacity:1;stroke-miterlimit:4;" d="M 10.091518 21.871094 L 18.798214 21.871094 " transform="matrix(0.795455,0,0,1,0,0)"/>
<path style="fill:none;stroke-width:1.5;stroke-linecap:round;stroke-linejoin:round;stroke:rgb(38.039216%,40.392157%,41.960784%);stroke-opacity:1;stroke-miterlimit:4;" d="M 26.95 21.058594 L 34.301339 21.058594 " transform="matrix(0.795455,0,0,1,0,0)"/>
<path style="fill:none;stroke-width:1.5;stroke-linecap:round;stroke-linejoin:round;stroke:rgb(38.039216%,40.392157%,41.960784%);stroke-opacity:1;stroke-miterlimit:4;" d="M 26.95 23.800781 L 34.301339 23.800781 " transform="matrix(0.795455,0,0,1,0,0)"/>
<path style="fill:none;stroke-width:1.5;stroke-linecap:round;stroke-linejoin:round;stroke:rgb(38.039216%,40.392157%,41.960784%);stroke-opacity:1;stroke-miterlimit:4;" d="M 26.95 26.539062 L 34.301339 26.539062 " transform="matrix(0.795455,0,0,1,0,0)"/>
<path style="fill:none;stroke-width:1.5;stroke-linecap:round;stroke-linejoin:round;stroke:rgb(38.039216%,40.392157%,41.960784%);stroke-opacity:1;stroke-miterlimit:4;" d="M 26.95 29.289062 L 34.301339 29.289062 " transform="matrix(0.795455,0,0,1,0,0)"/>
<path style="fill:none;stroke-width:1.5;stroke-linecap:round;stroke-linejoin:round;stroke:rgb(38.039216%,40.392157%,41.960784%);stroke-opacity:1;stroke-miterlimit:4;" d="M 26.95 15.328125 L 34.301339 15.328125 " transform="matrix(0.795455,0,0,1,0,0)"/>
<path style="fill:none;stroke-width:1.5;stroke-linecap:round;stroke-linejoin:round;stroke:rgb(38.039216%,40.392157%,41.960784%);stroke-opacity:1;stroke-miterlimit:4;" d="M 26.95 18.308594 L 34.301339 18.308594 " transform="matrix(0.795455,0,0,1,0,0)"/>
<path style="fill:none;stroke-width:1.5;stroke-linecap:round;stroke-linejoin:round;stroke:rgb(38.039216%,40.392157%,41.960784%);stroke-opacity:1;stroke-miterlimit:4;" d="M 0.918304 34.25 L 42.782143 34.25 " transform="matrix(0.795455,0,0,1,0,0)"/>
</g>
</svg>
