<svg width="36" height="36" viewBox="0 0 36 36" fill="none" xmlns="http://www.w3.org/2000/svg">
<g clip-path="url(#clip0_10_64)">
<path d="M19.5781 2H5.73938V35H19.5781V2Z" stroke="#61676B" stroke-width="1.33782" stroke-linecap="round" stroke-linejoin="round"/>
<path d="M31.2606 13.3632H19.5781V35H31.2606V13.3632Z" stroke="#61676B" stroke-width="1.33782" stroke-linecap="round" stroke-linejoin="round"/>
<path d="M14.7936 27.0989H10.5316V35H14.7936V27.0989Z" stroke="#61676B" stroke-width="1.33782" stroke-linecap="round" stroke-linejoin="round"/>
<path d="M9.23096 6.1095H16.0942" stroke="#61676B" stroke-width="1.33782" stroke-linecap="round" stroke-linejoin="round"/>
<path d="M9.23096 9.42419H16.0942" stroke="#61676B" stroke-width="1.33782" stroke-linecap="round" stroke-linejoin="round"/>
<path d="M9.23096 12.7467H16.0942" stroke="#61676B" stroke-width="1.33782" stroke-linecap="round" stroke-linejoin="round"/>
<path d="M9.23096 16.0731H16.0942" stroke="#61676B" stroke-width="1.33782" stroke-linecap="round" stroke-linejoin="round"/>
<path d="M9.23096 19.3878H16.0942" stroke="#61676B" stroke-width="1.33782" stroke-linecap="round" stroke-linejoin="round"/>
<path d="M9.23096 22.7141H16.0942" stroke="#61676B" stroke-width="1.33782" stroke-linecap="round" stroke-linejoin="round"/>
<path d="M22.52 21.9078H28.3149" stroke="#61676B" stroke-width="1.33782" stroke-linecap="round" stroke-linejoin="round"/>
<path d="M22.52 24.6294H28.3149" stroke="#61676B" stroke-width="1.33782" stroke-linecap="round" stroke-linejoin="round"/>
<path d="M22.52 27.347H28.3149" stroke="#61676B" stroke-width="1.33782" stroke-linecap="round" stroke-linejoin="round"/>
<path d="M22.52 30.0764H28.3149" stroke="#61676B" stroke-width="1.33782" stroke-linecap="round" stroke-linejoin="round"/>
<path d="M22.52 16.2203H28.3149" stroke="#61676B" stroke-width="1.33782" stroke-linecap="round" stroke-linejoin="round"/>
<path d="M22.52 19.1785H28.3149" stroke="#61676B" stroke-width="1.33782" stroke-linecap="round" stroke-linejoin="round"/>
<path d="M2 35H35" stroke="#61676B" stroke-width="1.33782" stroke-linecap="round" stroke-linejoin="round"/>
</g>
<defs>
<clipPath id="clip0_10_64">
<rect width="35" height="35" fill="white" transform="translate(0.5 0.5)"/>
</clipPath>
</defs>
</svg>
