<svg width="35" height="36" viewBox="0 0 35 36" fill="none" xmlns="http://www.w3.org/2000/svg">
<path fill-rule="evenodd" clip-rule="evenodd" d="M14.62 2.41C14.62 1.91614 15.0361 1.5 15.53 1.5H19.27C19.7639 1.5 20.18 1.91614 20.18 2.41V4.69C20.18 4.92013 20.3371 5.12054 20.5605 5.17552C21.7687 5.47277 22.9226 5.96263 23.9828 6.59874C24.1795 6.71679 24.4313 6.68579 24.5936 6.52355L26.2036 4.91355C26.5683 4.54881 27.1317 4.54881 27.4964 4.91355L30.1364 7.55355C30.5012 7.91829 30.5012 8.48171 30.1364 8.84644L28.5264 10.4564C28.3642 10.6187 28.3332 10.8705 28.4513 11.0672C29.0861 12.1253 29.5673 13.28 29.8754 14.4931C29.9317 14.7148 30.1313 14.87 30.36 14.87H32.62C33.1431 14.87 33.55 15.2753 33.55 15.78V19.52C33.55 20.0093 33.1384 20.43 32.62 20.43H30.36C30.1292 20.43 29.9284 20.588 29.8741 20.8123C29.5773 22.0378 29.0883 23.1711 28.4513 24.2327C28.3332 24.4295 28.3642 24.6813 28.5264 24.8435L30.1364 26.4536C30.5012 26.8183 30.5012 27.3817 30.1364 27.7465L27.5 30.3829C27.1346 30.7323 26.5655 30.7324 26.2 30.3829L24.5936 28.7764C24.4313 28.6142 24.1795 28.5832 23.9828 28.7013C22.9268 29.3349 21.7734 29.8061 20.5605 30.1045C20.3371 30.1595 20.18 30.3599 20.18 30.59V32.87C20.18 33.3792 19.7685 33.78 19.27 33.78H15.53C15.0315 33.78 14.62 33.3792 14.62 32.87V30.59C14.62 30.3599 14.4629 30.1595 14.2395 30.1045C13.0266 29.8061 11.8732 29.3349 10.8172 28.7013C10.6205 28.5832 10.3687 28.6142 10.2064 28.7764L8.59998 30.3829C8.23452 30.7324 7.66543 30.7324 7.29999 30.3829L4.66355 27.7465C4.29882 27.3817 4.29882 26.8183 4.66356 26.4536L6.27356 24.8435C6.43579 24.6813 6.46679 24.4295 6.34875 24.2327C5.71308 23.1733 5.23262 22.0389 4.92507 20.8087C4.86942 20.5861 4.66943 20.43 4.44 20.43H2.18C1.66156 20.43 1.25 20.0093 1.25 19.52V15.78C1.25 15.2753 1.6569 14.87 2.18 14.87H4.44C4.67013 14.87 4.87054 14.7129 4.92552 14.4894C5.22277 13.2813 5.71263 12.1274 6.34875 11.0672C6.46679 10.8705 6.43579 10.6187 6.27355 10.4564L4.66355 8.84644C4.29882 8.48171 4.29882 7.91829 4.66355 7.55355L7.30355 4.91355C7.66829 4.54881 8.23171 4.54881 8.59645 4.91355L10.2064 6.52355C10.3687 6.68579 10.6205 6.71679 10.8172 6.59874C11.8753 5.96393 13.03 5.48269 14.2431 5.17462C14.4648 5.11831 14.62 4.91874 14.62 4.69V2.41ZM15.53 0.5C14.4839 0.5 13.62 1.36386 13.62 2.41V4.30677C12.5773 4.603 11.5773 5.01913 10.6416 5.54451L9.30355 4.20644C8.54829 3.45118 7.35171 3.45118 6.59645 4.20644L3.95645 6.84644C3.20118 7.60171 3.20118 8.79829 3.95645 9.55355L5.29435 10.8915C4.76876 11.8251 4.34613 12.825 4.0544 13.87H2.18C1.1231 13.87 0.25 14.7047 0.25 15.78V19.52C0.25 20.5707 1.11844 21.43 2.18 21.43H4.05544C4.35211 22.486 4.76897 23.4755 5.29433 24.4086L3.95645 25.7465C3.20118 26.5017 3.20118 27.6983 3.95645 28.4536L6.59645 31.0935L6.59639 31.0936L6.60293 31.0999C7.35662 31.8267 8.54338 31.8267 9.29707 31.0999L9.29712 31.1L9.30355 31.0935L10.6418 29.7553C11.5781 30.2795 12.5781 30.6881 13.62 30.9761V32.87C13.62 33.9407 14.4885 34.78 15.53 34.78H19.27C20.3115 34.78 21.18 33.9407 21.18 32.87V30.9761C22.2219 30.6881 23.2219 30.2795 24.1582 29.7553L25.4964 31.0935L25.4964 31.0936L25.5029 31.0999C26.2566 31.8267 27.4434 31.8267 28.1971 31.0999L28.1971 31.1L28.2036 31.0935L30.8436 28.4536C31.5988 27.6983 31.5988 26.5017 30.8436 25.7465L29.5058 24.4087C30.0314 23.4778 30.4548 22.4883 30.7469 21.43H32.62C33.6816 21.43 34.55 20.5707 34.55 19.52V15.78C34.55 14.7047 33.6769 13.87 32.62 13.87H30.7432C30.447 12.8273 30.0309 11.8273 29.5055 10.8916L30.8436 9.55355C31.5988 8.79829 31.5988 7.60171 30.8436 6.84644L28.2036 4.20644C27.4483 3.45118 26.2517 3.45118 25.4964 4.20644L24.1585 5.54435C23.2249 5.01876 22.225 4.59613 21.18 4.3044V2.41C21.18 1.36386 20.3161 0.5 19.27 0.5H15.53ZM12.22 17.65C12.22 14.7837 14.5436 12.46 17.41 12.46C20.2763 12.46 22.6 14.7837 22.6 17.65C22.6 20.5164 20.2763 22.84 17.41 22.84C14.5436 22.84 12.22 20.5164 12.22 17.65ZM17.41 11.46C13.9913 11.46 11.22 14.2314 11.22 17.65C11.22 21.0687 13.9913 23.84 17.41 23.84C20.8286 23.84 23.6 21.0687 23.6 17.65C23.6 14.2314 20.8286 11.46 17.41 11.46Z" fill="#61676B"/>
<path d="M20.5605 5.17552L20.5008 5.41828L20.5605 5.17552ZM23.9828 6.59874L24.1114 6.38437L23.9828 6.59874ZM24.5936 6.52355L24.7703 6.70033V6.70033L24.5936 6.52355ZM26.2036 4.91355L26.3803 5.09033V5.09033L26.2036 4.91355ZM27.4964 4.91355L27.3197 5.09033V5.09033L27.4964 4.91355ZM30.1364 7.55355L29.9597 7.73033L30.1364 7.55355ZM30.1364 8.84644L29.9597 8.66967L30.1364 8.84644ZM28.5264 10.4564L28.3497 10.2797V10.2797L28.5264 10.4564ZM28.4513 11.0672L28.2369 11.1959L28.2369 11.1959L28.4513 11.0672ZM29.8754 14.4931L29.6331 14.5546L29.8754 14.4931ZM29.8741 20.8123L30.117 20.8711V20.8711L29.8741 20.8123ZM28.4513 24.2327L28.2369 24.1041L28.4513 24.2327ZM28.5264 24.8435L28.3497 25.0203H28.3497L28.5264 24.8435ZM30.1364 26.4536L29.9597 26.6303V26.6303L30.1364 26.4536ZM30.1364 27.7465L30.3132 27.9232L30.1364 27.7465ZM27.5 30.3829L27.6728 30.5636L27.6768 30.5597L27.5 30.3829ZM26.2 30.3829L26.0232 30.5597L26.0273 30.5636L26.2 30.3829ZM24.5936 28.7764L24.7703 28.5997V28.5997L24.5936 28.7764ZM23.9828 28.7013L23.8541 28.4869L23.9828 28.7013ZM20.5605 30.1045L20.6203 30.3472V30.3472L20.5605 30.1045ZM14.2395 30.1045L14.1797 30.3472L14.1797 30.3472L14.2395 30.1045ZM10.8172 28.7013L10.9459 28.4869L10.8172 28.7013ZM10.2064 28.7764L10.0297 28.5997L10.0297 28.5997L10.2064 28.7764ZM8.59998 30.3829L8.7728 30.5636L8.77676 30.5597L8.59998 30.3829ZM7.29999 30.3829L7.12317 30.5597L7.1272 30.5635L7.29999 30.3829ZM4.66355 27.7465L4.48678 27.9232L4.66355 27.7465ZM4.66356 26.4536L4.84033 26.6303L4.84033 26.6303L4.66356 26.4536ZM6.27356 24.8435L6.45033 25.0203H6.45033L6.27356 24.8435ZM6.34875 24.2327L6.13437 24.3614L6.34875 24.2327ZM4.92507 20.8087L4.68254 20.8694L4.92507 20.8087ZM4.92552 14.4894L5.16828 14.5492L4.92552 14.4894ZM6.34875 11.0672L6.13437 10.9386L6.34875 11.0672ZM6.27355 10.4564L6.09678 10.6332H6.09678L6.27355 10.4564ZM4.66355 8.84644L4.84033 8.66967H4.84033L4.66355 8.84644ZM8.59645 4.91355L8.77322 4.73677V4.73677L8.59645 4.91355ZM10.2064 6.52355L10.0297 6.70033V6.70033L10.2064 6.52355ZM10.8172 6.59874L10.6886 6.38437L10.8172 6.59874ZM14.2431 5.17462L14.3046 5.41693L14.2431 5.17462ZM13.62 4.30677L13.6883 4.54725C13.7958 4.51671 13.87 4.41853 13.87 4.30677H13.62ZM10.6416 5.54451L10.4648 5.72129C10.5441 5.80051 10.6663 5.81735 10.764 5.7625L10.6416 5.54451ZM9.30355 4.20644L9.48033 4.02967L9.30355 4.20644ZM6.59645 4.20644L6.77322 4.38322L6.59645 4.20644ZM3.95645 6.84644L4.13322 7.02322L3.95645 6.84644ZM3.95645 9.55355L3.77967 9.73033L3.95645 9.55355ZM5.29435 10.8915L5.5122 11.0141C5.56721 10.9164 5.55042 10.794 5.47113 10.7147L5.29435 10.8915ZM4.0544 13.87V14.12C4.16658 14.12 4.26503 14.0453 4.29519 13.9372L4.0544 13.87ZM4.05544 21.43L4.29612 21.3624C4.26582 21.2545 4.16747 21.18 4.05544 21.18V21.43ZM5.29433 24.4086L5.47111 24.5853C5.55041 24.506 5.56719 24.3836 5.51217 24.2859L5.29433 24.4086ZM3.95645 25.7465L4.13322 25.9232L4.13322 25.9232L3.95645 25.7465ZM3.95645 28.4536L3.77967 28.6303H3.77967L3.95645 28.4536ZM6.59645 31.0935L6.77394 31.2696C6.8709 31.1719 6.87058 31.0141 6.77322 30.9168L6.59645 31.0935ZM6.59639 31.0936L6.4189 30.9175C6.37177 30.9651 6.34566 31.0295 6.3464 31.0964C6.34715 31.1633 6.37469 31.2271 6.42285 31.2736L6.59639 31.0936ZM6.60293 31.0999L6.4294 31.2799H6.4294L6.60293 31.0999ZM9.29707 31.0999L9.47672 30.9261C9.38082 30.827 9.2228 30.8242 9.12353 30.92L9.29707 31.0999ZM9.29712 31.1L9.11747 31.2738C9.16407 31.322 9.22806 31.3494 9.29507 31.35C9.36208 31.3505 9.4265 31.3241 9.47389 31.2768L9.29712 31.1ZM9.30355 31.0935L9.48032 31.2703L9.48033 31.2703L9.30355 31.0935ZM10.6418 29.7553L10.7639 29.5372C10.6663 29.4825 10.5442 29.4994 10.465 29.5785L10.6418 29.7553ZM13.62 30.9761H13.87C13.87 30.8637 13.795 30.7651 13.6866 30.7352L13.62 30.9761ZM21.18 30.9761L21.1134 30.7352C21.005 30.7651 20.93 30.8637 20.93 30.9761H21.18ZM24.1582 29.7553L24.335 29.5785C24.2558 29.4994 24.1337 29.4825 24.0361 29.5372L24.1582 29.7553ZM25.4964 31.0935L25.6703 31.2732C25.7185 31.2266 25.7459 31.1626 25.7464 31.0956C25.747 31.0286 25.7206 30.9642 25.6732 30.9168L25.4964 31.0935ZM25.4964 31.0936L25.3225 30.914C25.2738 30.9611 25.2463 31.026 25.2464 31.0938C25.2465 31.1616 25.2741 31.2265 25.3229 31.2736L25.4964 31.0936ZM25.5029 31.0999L25.6765 30.92L25.6765 30.9199L25.5029 31.0999ZM28.1971 31.0999L28.3738 30.9231C28.2775 30.8268 28.1216 30.8253 28.0235 30.92L28.1971 31.0999ZM28.1971 31.1L28.0203 31.2767C28.0672 31.3236 28.1308 31.35 28.1971 31.35C28.2635 31.35 28.327 31.3236 28.3739 31.2767L28.1971 31.1ZM28.2036 31.0935L28.0268 30.9168L28.0267 30.9168L28.2036 31.0935ZM30.8436 28.4536L31.0203 28.6303L30.8436 28.4536ZM30.8436 25.7465L30.6668 25.9232V25.9232L30.8436 25.7465ZM29.5058 24.4087L29.2881 24.2858C29.233 24.3836 29.2497 24.5061 29.3291 24.5855L29.5058 24.4087ZM30.7469 21.43V21.18C30.6345 21.18 30.5358 21.2551 30.5059 21.3635L30.7469 21.43ZM30.7432 13.87L30.5027 13.9383C30.5333 14.0458 30.6315 14.12 30.7432 14.12V13.87ZM29.5055 10.8916L29.3287 10.7148C29.2495 10.7941 29.2326 10.9163 29.2875 11.014L29.5055 10.8916ZM30.8436 9.55355L30.6668 9.37677L30.8436 9.55355ZM30.8436 6.84644L31.0203 6.66967L30.8436 6.84644ZM28.2036 4.20644L28.0268 4.38322V4.38322L28.2036 4.20644ZM25.4964 4.20644L25.3197 4.02967L25.4964 4.20644ZM24.1585 5.54435L24.0359 5.7622C24.1336 5.81721 24.256 5.80042 24.3353 5.72112L24.1585 5.54435ZM21.18 4.3044H20.93C20.93 4.41658 21.0047 4.51503 21.1128 4.54519L21.18 4.3044ZM15.53 1.25C14.8981 1.25 14.37 1.77807 14.37 2.41H14.87C14.87 2.05421 15.1742 1.75 15.53 1.75V1.25ZM19.27 1.25H15.53V1.75H19.27V1.25ZM20.43 2.41C20.43 1.77807 19.9019 1.25 19.27 1.25V1.75C19.6258 1.75 19.93 2.05421 19.93 2.41H20.43ZM20.43 4.69V2.41H19.93V4.69H20.43ZM20.6203 4.93276C20.5085 4.90527 20.43 4.80507 20.43 4.69H19.93C19.93 5.0352 20.1656 5.33581 20.5008 5.41828L20.6203 4.93276ZM24.1114 6.38437C23.0313 5.73631 21.8544 5.23639 20.6203 4.93276L20.5008 5.41828C21.6831 5.70916 22.8138 6.18895 23.8541 6.81312L24.1114 6.38437ZM24.4168 6.34677C24.3357 6.42789 24.2097 6.44339 24.1114 6.38437L23.8541 6.81312C24.1492 6.99018 24.527 6.94368 24.7703 6.70033L24.4168 6.34677ZM26.0268 4.73677L24.4168 6.34677L24.7703 6.70033L26.3803 5.09033L26.0268 4.73677ZM27.6732 4.73677C27.2109 4.27441 26.4891 4.27441 26.0268 4.73677L26.3803 5.09033C26.6474 4.82322 27.0526 4.82322 27.3197 5.09033L27.6732 4.73677ZM30.3132 7.37677L27.6732 4.73677L27.3197 5.09033L29.9597 7.73033L30.3132 7.37677ZM30.3132 9.02322C30.7756 8.56085 30.7756 7.83914 30.3132 7.37677L29.9597 7.73033C30.2268 7.99743 30.2268 8.40256 29.9597 8.66967L30.3132 9.02322ZM28.7032 10.6332L30.3132 9.02322L29.9597 8.66967L28.3497 10.2797L28.7032 10.6332ZM28.6656 10.9386C28.6066 10.8403 28.6221 10.7143 28.7032 10.6332L28.3497 10.2797C28.1063 10.523 28.0598 10.9008 28.2369 11.1959L28.6656 10.9386ZM30.1177 14.4315C29.8037 13.195 29.313 12.0176 28.6656 10.9386L28.2369 11.1959C28.8591 12.2329 29.331 13.3651 29.6331 14.5546L30.1177 14.4315ZM30.36 14.62C30.2456 14.62 30.1458 14.5424 30.1177 14.4315L29.6331 14.5546C29.7175 14.8872 30.0169 15.12 30.36 15.12V14.62ZM32.62 14.62H30.36V15.12H32.62V14.62ZM33.8 15.78C33.8 15.1334 33.2773 14.62 32.62 14.62V15.12C33.0089 15.12 33.3 15.4172 33.3 15.78H33.8ZM33.8 19.52V15.78H33.3V19.52H33.8ZM32.62 20.68C33.2746 20.68 33.8 20.1493 33.8 19.52H33.3C33.3 19.8693 33.0023 20.18 32.62 20.18V20.68ZM30.36 20.68H32.62V20.18H30.36V20.68ZM30.117 20.8711C30.1442 20.759 30.2446 20.68 30.36 20.68V20.18C30.0138 20.18 29.7126 20.417 29.6311 20.7535L30.117 20.8711ZM28.6656 24.3614C29.3141 23.2805 29.8136 22.1239 30.117 20.8711L29.6311 20.7535C29.3409 21.9516 28.8624 23.0616 28.2369 24.1041L28.6656 24.3614ZM28.7032 24.6668C28.6221 24.5856 28.6066 24.4597 28.6656 24.3614L28.2369 24.1041C28.0598 24.3992 28.1063 24.777 28.3497 25.0203L28.7032 24.6668ZM30.3132 26.2768L28.7032 24.6668L28.3497 25.0203L29.9597 26.6303L30.3132 26.2768ZM30.3132 27.9232C30.7756 27.4609 30.7756 26.7392 30.3132 26.2768L29.9597 26.6303C30.2268 26.8974 30.2268 27.3026 29.9597 27.5697L30.3132 27.9232ZM27.6768 30.5597L30.3132 27.9232L29.9597 27.5697L27.3232 30.2061L27.6768 30.5597ZM26.0273 30.5636C26.4894 31.0055 27.2107 31.0054 27.6728 30.5636L27.3272 30.2022C27.0584 30.4592 26.6416 30.4593 26.3728 30.2022L26.0273 30.5636ZM24.4168 28.9532L26.0233 30.5597L26.3768 30.2061L24.7703 28.5997L24.4168 28.9532ZM24.1114 28.9156C24.2097 28.8566 24.3357 28.8721 24.4168 28.9532L24.7703 28.5997C24.527 28.3563 24.1492 28.3098 23.8541 28.4869L24.1114 28.9156ZM20.6203 30.3472C21.8567 30.043 23.0334 29.5624 24.1114 28.9156L23.8541 28.4869C22.8201 29.1073 21.6901 29.5691 20.5008 29.8617L20.6203 30.3472ZM20.43 30.59C20.43 30.4749 20.5085 30.3747 20.6203 30.3472L20.5008 29.8617C20.1656 29.9442 19.93 30.2448 19.93 30.59H20.43ZM20.43 32.87V30.59H19.93V32.87H20.43ZM19.27 34.03C19.9046 34.03 20.43 33.5192 20.43 32.87H19.93C19.93 33.2393 19.6323 33.53 19.27 33.53V34.03ZM15.53 34.03H19.27V33.53H15.53V34.03ZM14.37 32.87C14.37 33.5192 14.8954 34.03 15.53 34.03V33.53C15.1677 33.53 14.87 33.2393 14.87 32.87H14.37ZM14.37 30.59V32.87H14.87V30.59H14.37ZM14.1797 30.3472C14.2915 30.3747 14.37 30.4749 14.37 30.59H14.87C14.87 30.2448 14.6344 29.9442 14.2992 29.8617L14.1797 30.3472ZM10.6886 28.9156C11.7666 29.5624 12.9433 30.043 14.1797 30.3472L14.2992 29.8617C13.1099 29.5691 11.9799 29.1073 10.9459 28.4869L10.6886 28.9156ZM10.3832 28.9532C10.4643 28.8721 10.5903 28.8566 10.6886 28.9156L10.9459 28.4869C10.6508 28.3098 10.273 28.3563 10.0297 28.5997L10.3832 28.9532ZM8.77676 30.5597L10.3832 28.9532L10.0297 28.5997L8.42321 30.2061L8.77676 30.5597ZM7.1272 30.5635C7.58929 31.0055 8.31065 31.0055 8.77276 30.5636L8.4272 30.2022C8.15839 30.4593 7.74157 30.4592 7.47277 30.2022L7.1272 30.5635ZM4.48678 27.9232L7.12321 30.5596L7.47676 30.2061L4.84033 27.5697L4.48678 27.9232ZM4.48678 26.2768C4.02441 26.7392 4.02441 27.4609 4.48678 27.9232L4.84033 27.5697C4.57322 27.3026 4.57322 26.8974 4.84033 26.6303L4.48678 26.2768ZM6.09678 24.6668L4.48678 26.2768L4.84033 26.6303L6.45033 25.0203L6.09678 24.6668ZM6.13437 24.3614C6.19339 24.4597 6.17789 24.5856 6.09678 24.6668L6.45033 25.0203C6.69368 24.777 6.74018 24.3992 6.56312 24.1041L6.13437 24.3614ZM4.68254 20.8694C4.99631 22.1245 5.48654 23.2816 6.13437 24.3614L6.56312 24.1041C5.93962 23.0649 5.46893 21.9534 5.16761 20.7481L4.68254 20.8694ZM4.44 20.68C4.55472 20.68 4.65471 20.7581 4.68254 20.8694L5.16761 20.7481C5.08414 20.4142 4.78415 20.18 4.44 20.18V20.68ZM2.18 20.68H4.44V20.18H2.18V20.68ZM1 19.52C1 20.1493 1.5254 20.68 2.18 20.68V20.18C1.79771 20.18 1.5 19.8693 1.5 19.52H1ZM1 15.78V19.52H1.5V15.78H1ZM2.18 14.62C1.52268 14.62 1 15.1334 1 15.78H1.5C1.5 15.4172 1.79112 15.12 2.18 15.12V14.62ZM4.44 14.62H2.18V15.12H4.44V14.62ZM4.68276 14.4297C4.65527 14.5415 4.55506 14.62 4.44 14.62V15.12C4.7852 15.12 5.08581 14.8844 5.16828 14.5492L4.68276 14.4297ZM6.13437 10.9386C5.48631 12.0187 4.98638 13.1956 4.68276 14.4297L5.16828 14.5492C5.45916 13.3669 5.93895 12.2362 6.56312 11.1959L6.13437 10.9386ZM6.09678 10.6332C6.17789 10.7143 6.19339 10.8403 6.13437 10.9386L6.56312 11.1959C6.74018 10.9008 6.69368 10.523 6.45033 10.2797L6.09678 10.6332ZM4.48678 9.02322L6.09678 10.6332L6.45033 10.2797L4.84033 8.66967L4.48678 9.02322ZM4.48678 7.37677C4.02441 7.83914 4.02441 8.56085 4.48678 9.02322L4.84033 8.66967C4.57322 8.40256 4.57322 7.99743 4.84033 7.73033L4.48678 7.37677ZM7.12678 4.73677L4.48678 7.37677L4.84033 7.73033L7.48033 5.09033L7.12678 4.73677ZM8.77322 4.73677C8.31085 4.27441 7.58915 4.27441 7.12678 4.73677L7.48033 5.09033C7.74744 4.82322 8.15256 4.82322 8.41967 5.09033L8.77322 4.73677ZM10.3832 6.34678L8.77322 4.73677L8.41967 5.09033L10.0297 6.70033L10.3832 6.34678ZM10.6886 6.38437C10.5903 6.44339 10.4643 6.42789 10.3832 6.34677L10.0297 6.70033C10.273 6.94368 10.6508 6.99018 10.9459 6.81312L10.6886 6.38437ZM14.1815 4.93231C12.945 5.24635 11.7676 5.73696 10.6886 6.38437L10.9459 6.81312C11.9829 6.1909 13.1151 5.71904 14.3046 5.41693L14.1815 4.93231ZM14.37 4.69C14.37 4.80437 14.2924 4.90416 14.1815 4.93231L14.3046 5.41693C14.6372 5.33247 14.87 5.03311 14.87 4.69H14.37ZM14.37 2.41V4.69H14.87V2.41H14.37ZM13.87 2.41C13.87 1.50193 14.6219 0.75 15.53 0.75V0.25C14.3458 0.25 13.37 1.22579 13.37 2.41H13.87ZM13.87 4.30677V2.41H13.37V4.30677H13.87ZM10.764 5.7625C11.6826 5.24675 12.6644 4.83815 13.6883 4.54725L13.5517 4.06629C12.4902 4.36785 11.4721 4.79152 10.5192 5.32653L10.764 5.7625ZM9.12678 4.38322L10.4648 5.72129L10.8184 5.36774L9.48033 4.02967L9.12678 4.38322ZM6.77322 4.38322C7.43085 3.72559 8.46915 3.72559 9.12678 4.38322L9.48033 4.02967C8.62744 3.17677 7.27256 3.17677 6.41967 4.02967L6.77322 4.38322ZM4.13322 7.02322L6.77322 4.38322L6.41967 4.02967L3.77967 6.66967L4.13322 7.02322ZM4.13322 9.37677C3.47559 8.71914 3.47559 7.68085 4.13322 7.02322L3.77967 6.66967C2.92678 7.52256 2.92678 8.87743 3.77967 9.73033L4.13322 9.37677ZM5.47113 10.7147L4.13322 9.37677L3.77967 9.73033L5.11757 11.0682L5.47113 10.7147ZM4.29519 13.9372C4.58123 12.9126 4.9959 11.9312 5.5122 11.0141L5.0765 10.7688C4.54163 11.7189 4.11103 12.7374 3.81361 13.8028L4.29519 13.9372ZM2.18 14.12H4.0544V13.62H2.18V14.12ZM0.5 15.78C0.5 14.8477 1.25618 14.12 2.18 14.12V13.62C0.990014 13.62 0 14.5617 0 15.78H0.5ZM0.5 19.52V15.78H0V19.52H0.5ZM2.18 21.18C1.25404 21.18 0.5 20.4302 0.5 19.52H0C0 20.7112 0.982846 21.68 2.18 21.68V21.18ZM4.05544 21.18H2.18V21.68H4.05544V21.18ZM5.51217 24.2859C4.99627 23.3697 4.58722 22.3986 4.29612 21.3624L3.81475 21.4976C4.11699 22.5734 4.54167 23.5814 5.07649 24.5312L5.51217 24.2859ZM4.13322 25.9232L5.47111 24.5853L5.11755 24.2318L3.77967 25.5697L4.13322 25.9232ZM4.13322 28.2768C3.47559 27.6192 3.47559 26.5809 4.13322 25.9232L3.77967 25.5697C2.92678 26.4226 2.92678 27.7774 3.77967 28.6303L4.13322 28.2768ZM6.77322 30.9168L4.13322 28.2768L3.77967 28.6303L6.41967 31.2703L6.77322 30.9168ZM6.77388 31.2697L6.77394 31.2696L6.41896 30.9175L6.4189 30.9175L6.77388 31.2697ZM6.77647 30.92L6.76992 30.9136L6.42285 31.2736L6.4294 31.2799L6.77647 30.92ZM9.12353 30.92C8.46669 31.5533 7.43331 31.5533 6.77647 30.92L6.4294 31.2799C7.27993 32.1 8.62007 32.1 9.4706 31.2799L9.12353 30.92ZM9.47678 30.9261L9.47672 30.9261L9.11742 31.2738L9.11747 31.2738L9.47678 30.9261ZM9.12679 30.9168L9.12036 30.9232L9.47389 31.2768L9.48032 31.2703L9.12679 30.9168ZM10.465 29.5785L9.12678 30.9168L9.48033 31.2703L10.8186 29.9321L10.465 29.5785ZM13.6866 30.7352C12.6637 30.4524 11.6823 30.0513 10.7639 29.5372L10.5197 29.9734C11.4738 30.5077 12.4926 30.9238 13.5534 31.2171L13.6866 30.7352ZM13.87 32.87V30.9761H13.37V32.87H13.87ZM15.53 34.53C14.6241 34.53 13.87 33.8002 13.87 32.87H13.37C13.37 34.0813 14.3529 35.03 15.53 35.03V34.53ZM19.27 34.53H15.53V35.03H19.27V34.53ZM20.93 32.87C20.93 33.8002 20.1759 34.53 19.27 34.53V35.03C20.4471 35.03 21.43 34.0813 21.43 32.87H20.93ZM20.93 30.9761V32.87H21.43V30.9761H20.93ZM24.0361 29.5372C23.1177 30.0513 22.1364 30.4524 21.1134 30.7352L21.2466 31.2171C22.3074 30.9238 23.3262 30.5077 24.2803 29.9734L24.0361 29.5372ZM25.6732 30.9168L24.335 29.5785L23.9814 29.9321L25.3197 31.2703L25.6732 30.9168ZM25.6702 31.2733L25.6703 31.2732L25.3226 30.9139L25.3225 30.914L25.6702 31.2733ZM25.6765 30.9199L25.6699 30.9136L25.3229 31.2736L25.3294 31.2799L25.6765 30.9199ZM28.0235 30.92C27.3667 31.5533 26.3333 31.5533 25.6765 30.92L25.3294 31.2799C26.1799 32.1 27.5201 32.1 28.3706 31.2799L28.0235 30.92ZM28.3739 30.9232L28.3738 30.9231L28.0203 31.2767L28.0203 31.2767L28.3739 30.9232ZM28.0267 30.9168L28.0203 30.9232L28.3739 31.2767L28.3804 31.2703L28.0267 30.9168ZM30.6668 28.2768L28.0268 30.9168L28.3803 31.2703L31.0203 28.6303L30.6668 28.2768ZM30.6668 25.9232C31.3244 26.5809 31.3244 27.6192 30.6668 28.2768L31.0203 28.6303C31.8732 27.7774 31.8732 26.4226 31.0203 25.5697L30.6668 25.9232ZM29.3291 24.5855L30.6668 25.9232L31.0203 25.5697L29.6826 24.2319L29.3291 24.5855ZM30.5059 21.3635C30.2197 22.4003 29.8046 23.371 29.2881 24.2858L29.7235 24.5316C30.2582 23.5846 30.6899 22.5762 30.9879 21.4965L30.5059 21.3635ZM32.62 21.18H30.7469V21.68H32.62V21.18ZM34.3 19.52C34.3 20.4302 33.546 21.18 32.62 21.18V21.68C33.8172 21.68 34.8 20.7112 34.8 19.52H34.3ZM34.3 15.78V19.52H34.8V15.78H34.3ZM32.62 14.12C33.5438 14.12 34.3 14.8477 34.3 15.78H34.8C34.8 14.5617 33.81 13.62 32.62 13.62V14.12ZM30.7432 14.12H32.62V13.62H30.7432V14.12ZM29.2875 11.014C29.8032 11.9326 30.2118 12.9144 30.5027 13.9383L30.9837 13.8017C30.6821 12.7402 30.2585 11.7221 29.7235 10.7692L29.2875 11.014ZM30.6668 9.37677L29.3287 10.7148L29.6823 11.0684L31.0203 9.73033L30.6668 9.37677ZM30.6668 7.02322C31.3244 7.68085 31.3244 8.71914 30.6668 9.37677L31.0203 9.73033C31.8732 8.87743 31.8732 7.52256 31.0203 6.66967L30.6668 7.02322ZM28.0268 4.38322L30.6668 7.02322L31.0203 6.66967L28.3803 4.02967L28.0268 4.38322ZM25.6732 4.38322C26.3309 3.72559 27.3691 3.72559 28.0268 4.38322L28.3803 4.02967C27.5274 3.17677 26.1726 3.17677 25.3197 4.02967L25.6732 4.38322ZM24.3353 5.72112L25.6732 4.38322L25.3197 4.02967L23.9818 5.36757L24.3353 5.72112ZM21.1128 4.54519C22.1374 4.83123 23.1188 5.24589 24.0359 5.7622L24.2812 5.32649C23.3311 4.79162 22.3126 4.36103 21.2472 4.06361L21.1128 4.54519ZM20.93 2.41V4.3044H21.43V2.41H20.93ZM19.27 0.75C20.1781 0.75 20.93 1.50193 20.93 2.41H21.43C21.43 1.22579 20.4542 0.25 19.27 0.25V0.75ZM15.53 0.75H19.27V0.25H15.53V0.75ZM17.41 12.21C14.4055 12.21 11.97 14.6456 11.97 17.65H12.47C12.47 14.9217 14.6817 12.71 17.41 12.71V12.21ZM22.85 17.65C22.85 14.6456 20.4144 12.21 17.41 12.21V12.71C20.1383 12.71 22.35 14.9217 22.35 17.65H22.85ZM17.41 23.09C20.4144 23.09 22.85 20.6544 22.85 17.65H22.35C22.35 20.3783 20.1383 22.59 17.41 22.59V23.09ZM11.97 17.65C11.97 20.6544 14.4055 23.09 17.41 23.09V22.59C14.6817 22.59 12.47 20.3783 12.47 17.65H11.97ZM11.47 17.65C11.47 14.3694 14.1294 11.71 17.41 11.71V11.21C13.8533 11.21 10.97 14.0933 10.97 17.65H11.47ZM17.41 23.59C14.1294 23.59 11.47 20.9306 11.47 17.65H10.97C10.97 21.2067 13.8533 24.09 17.41 24.09V23.59ZM23.35 17.65C23.35 20.9306 20.6905 23.59 17.41 23.59V24.09C20.9667 24.09 23.85 21.2067 23.85 17.65H23.35ZM17.41 11.71C20.6905 11.71 23.35 14.3694 23.35 17.65H23.85C23.85 14.0933 20.9667 11.21 17.41 11.21V11.71Z" fill="#61676B"/>
</svg>
