<?xml version="1.0" encoding="UTF-8"?>
<svg xmlns="http://www.w3.org/2000/svg" xmlns:xlink="http://www.w3.org/1999/xlink" width="35px" height="35px" viewBox="0 0 35 35" version="1.1">
<g id="surface1">
<path style=" stroke:none;fill-rule:evenodd;fill:rgb(38.039216%,40.392157%,41.960784%);fill-opacity:1;" d="M 14.621094 2.34375 C 14.621094 1.863281 15.035156 1.457031 15.53125 1.457031 L 19.269531 1.457031 C 19.765625 1.457031 20.179688 1.863281 20.179688 2.34375 L 20.179688 4.558594 C 20.179688 4.785156 20.335938 4.976562 20.558594 5.03125 C 21.769531 5.320312 22.921875 5.796875 23.984375 6.414062 C 24.179688 6.53125 24.429688 6.5 24.59375 6.34375 L 26.203125 4.777344 C 26.566406 4.421875 27.132812 4.421875 27.496094 4.777344 L 30.136719 7.34375 C 30.5 7.699219 30.5 8.246094 30.136719 8.601562 L 28.527344 10.164062 C 28.363281 10.324219 28.332031 10.570312 28.453125 10.761719 C 29.085938 11.789062 29.566406 12.910156 29.875 14.089844 C 29.933594 14.304688 30.132812 14.457031 30.359375 14.457031 L 32.621094 14.457031 C 33.144531 14.457031 33.550781 14.851562 33.550781 15.339844 L 33.550781 18.976562 C 33.550781 19.453125 33.136719 19.863281 32.621094 19.863281 L 30.359375 19.863281 C 30.128906 19.863281 29.929688 20.015625 29.875 20.234375 C 29.578125 21.425781 29.089844 22.527344 28.453125 23.558594 C 28.332031 23.75 28.363281 23.996094 28.527344 24.152344 L 30.136719 25.71875 C 30.5 26.074219 30.5 26.621094 30.136719 26.976562 L 27.5 29.539062 C 27.132812 29.878906 26.566406 29.878906 26.199219 29.539062 L 24.59375 27.976562 C 24.429688 27.820312 24.179688 27.789062 23.984375 27.902344 C 22.925781 28.519531 21.773438 28.976562 20.558594 29.269531 C 20.335938 29.320312 20.179688 29.515625 20.179688 29.742188 L 20.179688 31.957031 C 20.179688 32.453125 19.769531 32.839844 19.269531 32.839844 L 15.53125 32.839844 C 15.03125 32.839844 14.621094 32.453125 14.621094 31.957031 L 14.621094 29.742188 C 14.621094 29.515625 14.464844 29.320312 14.238281 29.269531 C 13.027344 28.976562 11.875 28.519531 10.816406 27.902344 C 10.621094 27.789062 10.367188 27.820312 10.207031 27.976562 L 8.601562 29.539062 C 8.234375 29.878906 7.664062 29.878906 7.300781 29.539062 L 4.664062 26.976562 C 4.296875 26.621094 4.296875 26.074219 4.664062 25.71875 L 6.273438 24.152344 C 6.4375 23.996094 6.464844 23.75 6.347656 23.558594 C 5.714844 22.53125 5.234375 21.425781 4.925781 20.230469 C 4.871094 20.015625 4.667969 19.863281 4.441406 19.863281 L 2.179688 19.863281 C 1.660156 19.863281 1.25 19.453125 1.25 18.976562 L 1.25 15.339844 C 1.25 14.851562 1.65625 14.457031 2.179688 14.457031 L 4.441406 14.457031 C 4.671875 14.457031 4.871094 14.304688 4.925781 14.085938 C 5.222656 12.914062 5.710938 11.789062 6.347656 10.761719 C 6.464844 10.570312 6.4375 10.324219 6.273438 10.164062 L 4.664062 8.601562 C 4.296875 8.246094 4.296875 7.699219 4.664062 7.34375 L 7.304688 4.777344 C 7.667969 4.421875 8.230469 4.421875 8.597656 4.777344 L 10.207031 6.34375 C 10.367188 6.5 10.621094 6.53125 10.816406 6.414062 C 11.875 5.796875 13.03125 5.332031 14.242188 5.03125 C 14.464844 4.976562 14.621094 4.78125 14.621094 4.558594 Z M 15.53125 0.484375 C 14.484375 0.484375 13.621094 1.324219 13.621094 2.34375 L 13.621094 4.1875 C 12.578125 4.476562 11.578125 4.878906 10.640625 5.390625 L 9.304688 4.089844 C 8.546875 3.355469 7.351562 3.355469 6.597656 4.089844 L 3.957031 6.65625 C 3.203125 7.390625 3.203125 8.554688 3.957031 9.289062 L 5.292969 10.589844 C 4.769531 11.496094 4.347656 12.46875 4.054688 13.484375 L 2.179688 13.484375 C 1.125 13.484375 0.25 14.296875 0.25 15.339844 L 0.25 18.976562 C 0.25 20 1.117188 20.835938 2.179688 20.835938 L 4.054688 20.835938 C 4.351562 21.863281 4.769531 22.824219 5.292969 23.730469 L 3.957031 25.03125 C 3.203125 25.765625 3.203125 26.929688 3.957031 27.664062 L 6.597656 30.230469 L 6.601562 30.234375 C 7.355469 30.941406 8.542969 30.941406 9.296875 30.234375 L 9.304688 30.230469 L 10.640625 28.929688 C 11.578125 29.4375 12.578125 29.835938 13.621094 30.117188 L 13.621094 31.957031 C 13.621094 32.996094 14.488281 33.8125 15.53125 33.8125 L 19.269531 33.8125 C 20.3125 33.8125 21.179688 32.996094 21.179688 31.957031 L 21.179688 30.117188 C 22.222656 29.835938 23.222656 29.4375 24.15625 28.929688 L 25.496094 30.230469 L 25.503906 30.234375 C 26.257812 30.941406 27.445312 30.941406 28.195312 30.234375 L 28.203125 30.230469 L 30.84375 27.664062 C 31.597656 26.929688 31.597656 25.765625 30.84375 25.03125 L 29.503906 23.730469 C 30.03125 22.824219 30.453125 21.863281 30.746094 20.835938 L 32.621094 20.835938 C 33.679688 20.835938 34.550781 20 34.550781 18.976562 L 34.550781 15.339844 C 34.550781 14.296875 33.675781 13.484375 32.621094 13.484375 L 30.742188 13.484375 C 30.445312 12.472656 30.03125 11.5 29.503906 10.589844 L 30.84375 9.289062 C 31.597656 8.554688 31.597656 7.390625 30.84375 6.65625 L 28.203125 4.089844 C 27.449219 3.355469 26.25 3.355469 25.496094 4.089844 L 24.160156 5.390625 C 23.226562 4.878906 22.226562 4.46875 21.179688 4.183594 L 21.179688 2.34375 C 21.179688 1.324219 20.316406 0.484375 19.269531 0.484375 Z M 12.21875 17.160156 C 12.21875 14.371094 14.542969 12.113281 17.410156 12.113281 C 20.277344 12.113281 22.601562 14.371094 22.601562 17.160156 C 22.601562 19.945312 20.277344 22.207031 17.410156 22.207031 C 14.542969 22.207031 12.21875 19.945312 12.21875 17.160156 Z M 17.410156 11.140625 C 13.992188 11.140625 11.21875 13.835938 11.21875 17.160156 C 11.21875 20.484375 13.992188 23.179688 17.410156 23.179688 C 20.828125 23.179688 23.601562 20.484375 23.601562 17.160156 C 23.601562 13.835938 20.828125 11.140625 17.410156 11.140625 Z M 17.410156 11.140625 "/>
<path style=" stroke:none;fill-rule:nonzero;fill:rgb(38.039216%,40.392157%,41.960784%);fill-opacity:1;" d="M 20.558594 5.03125 L 20.5 5.269531 Z M 23.984375 6.414062 L 24.113281 6.207031 Z M 24.59375 6.34375 L 24.769531 6.515625 Z M 26.203125 4.777344 L 26.378906 4.949219 Z M 27.496094 4.777344 L 27.320312 4.949219 Z M 30.136719 7.34375 L 29.960938 7.515625 Z M 30.136719 8.601562 L 29.960938 8.429688 Z M 28.527344 10.164062 L 28.351562 9.996094 Z M 28.453125 10.761719 L 28.238281 10.886719 Z M 29.875 14.089844 L 29.632812 14.148438 Z M 29.875 20.234375 L 30.117188 20.292969 Z M 28.453125 23.558594 L 28.238281 23.433594 Z M 28.527344 24.152344 L 28.351562 24.324219 Z M 30.136719 25.71875 L 29.960938 25.890625 Z M 30.136719 26.976562 L 30.3125 27.148438 Z M 27.5 29.539062 L 27.671875 29.714844 L 27.675781 29.710938 Z M 26.199219 29.539062 L 26.023438 29.710938 L 26.027344 29.714844 Z M 24.59375 27.976562 L 24.769531 27.804688 Z M 23.984375 27.902344 L 23.855469 27.695312 Z M 20.558594 29.269531 L 20.621094 29.503906 Z M 14.238281 29.269531 L 14.179688 29.503906 Z M 10.816406 27.902344 L 10.945312 27.695312 Z M 10.207031 27.976562 L 10.03125 27.804688 Z M 8.601562 29.539062 L 8.773438 29.714844 L 8.777344 29.710938 Z M 7.300781 29.539062 L 7.125 29.710938 L 7.128906 29.714844 Z M 4.664062 26.976562 L 4.488281 27.148438 Z M 4.664062 25.71875 L 4.839844 25.890625 Z M 6.273438 24.152344 L 6.449219 24.324219 Z M 6.347656 23.558594 L 6.132812 23.683594 Z M 4.925781 20.230469 L 4.683594 20.289062 Z M 4.925781 14.085938 L 5.167969 14.144531 Z M 6.347656 10.761719 L 6.132812 10.632812 Z M 6.273438 10.164062 L 6.097656 10.335938 Z M 4.664062 8.601562 L 4.839844 8.429688 Z M 8.597656 4.777344 L 8.773438 4.605469 Z M 10.207031 6.34375 L 10.03125 6.515625 Z M 10.816406 6.414062 L 10.6875 6.207031 Z M 14.242188 5.03125 L 14.304688 5.265625 Z M 13.621094 4.1875 L 13.6875 4.421875 C 13.796875 4.390625 13.871094 4.296875 13.871094 4.1875 Z M 10.640625 5.390625 L 10.464844 5.5625 C 10.542969 5.640625 10.667969 5.65625 10.765625 5.601562 Z M 9.304688 4.089844 L 9.480469 3.917969 Z M 6.597656 4.089844 L 6.773438 4.261719 Z M 3.957031 6.65625 L 4.132812 6.828125 Z M 3.957031 9.289062 L 3.78125 9.460938 Z M 5.292969 10.589844 L 5.511719 10.707031 C 5.566406 10.613281 5.550781 10.496094 5.472656 10.417969 Z M 4.054688 13.484375 L 4.054688 13.726562 C 4.167969 13.726562 4.265625 13.65625 4.296875 13.550781 Z M 4.054688 20.835938 L 4.296875 20.769531 C 4.265625 20.664062 4.167969 20.589844 4.054688 20.589844 Z M 5.292969 23.730469 L 5.472656 23.902344 C 5.550781 23.824219 5.566406 23.707031 5.511719 23.609375 Z M 3.957031 25.03125 L 4.132812 25.203125 Z M 3.957031 27.664062 L 3.78125 27.835938 Z M 6.597656 30.230469 L 6.773438 30.402344 C 6.871094 30.304688 6.871094 30.152344 6.773438 30.058594 Z M 6.597656 30.230469 L 6.417969 30.058594 C 6.371094 30.105469 6.34375 30.167969 6.347656 30.234375 C 6.347656 30.296875 6.375 30.359375 6.421875 30.40625 Z M 6.601562 30.234375 L 6.429688 30.410156 Z M 9.296875 30.234375 L 9.476562 30.066406 C 9.378906 29.96875 9.222656 29.96875 9.125 30.0625 Z M 9.296875 30.234375 L 9.117188 30.40625 C 9.164062 30.453125 9.226562 30.480469 9.296875 30.480469 C 9.363281 30.480469 9.425781 30.453125 9.472656 30.40625 Z M 9.304688 30.230469 L 9.480469 30.402344 Z M 10.640625 28.929688 L 10.765625 28.714844 C 10.667969 28.664062 10.542969 28.679688 10.464844 28.757812 Z M 13.621094 30.117188 L 13.871094 30.117188 C 13.871094 30.007812 13.796875 29.910156 13.6875 29.882812 Z M 21.179688 30.117188 L 21.113281 29.882812 C 21.003906 29.910156 20.929688 30.007812 20.929688 30.117188 Z M 24.15625 28.929688 L 24.335938 28.757812 C 24.253906 28.679688 24.132812 28.664062 24.035156 28.714844 Z M 25.496094 30.230469 L 25.671875 30.40625 C 25.71875 30.359375 25.746094 30.296875 25.746094 30.230469 C 25.746094 30.167969 25.71875 30.105469 25.671875 30.058594 Z M 25.496094 30.230469 L 25.324219 30.054688 C 25.273438 30.101562 25.246094 30.164062 25.246094 30.230469 C 25.246094 30.296875 25.273438 30.359375 25.324219 30.40625 Z M 25.503906 30.234375 L 25.675781 30.0625 Z M 28.195312 30.234375 L 28.375 30.0625 C 28.277344 29.96875 28.121094 29.96875 28.023438 30.0625 Z M 28.195312 30.234375 L 28.019531 30.40625 C 28.066406 30.453125 28.128906 30.480469 28.195312 30.480469 C 28.261719 30.480469 28.328125 30.453125 28.375 30.40625 Z M 28.203125 30.230469 L 28.027344 30.058594 Z M 30.84375 27.664062 L 31.019531 27.835938 Z M 30.84375 25.03125 L 30.667969 25.203125 Z M 29.503906 23.730469 L 29.289062 23.609375 C 29.234375 23.707031 29.25 23.824219 29.328125 23.902344 Z M 30.746094 20.835938 L 30.746094 20.589844 C 30.632812 20.589844 30.535156 20.664062 30.507812 20.769531 Z M 30.742188 13.484375 L 30.503906 13.550781 C 30.535156 13.65625 30.632812 13.726562 30.742188 13.726562 Z M 29.503906 10.589844 L 29.328125 10.417969 C 29.25 10.496094 29.234375 10.613281 29.289062 10.707031 Z M 30.84375 9.289062 L 30.667969 9.117188 Z M 30.84375 6.65625 L 31.019531 6.484375 Z M 28.203125 4.089844 L 28.027344 4.261719 Z M 25.496094 4.089844 L 25.320312 3.917969 Z M 24.160156 5.390625 L 24.035156 5.601562 C 24.132812 5.65625 24.257812 5.640625 24.335938 5.5625 Z M 21.179688 4.183594 L 20.929688 4.183594 C 20.929688 4.292969 21.003906 4.390625 21.113281 4.417969 Z M 15.53125 1.214844 C 14.898438 1.214844 14.371094 1.730469 14.371094 2.34375 L 14.871094 2.34375 C 14.871094 1.996094 15.175781 1.703125 15.53125 1.703125 Z M 19.269531 1.214844 L 15.53125 1.214844 L 15.53125 1.703125 L 19.269531 1.703125 Z M 20.429688 2.34375 C 20.429688 1.730469 19.902344 1.214844 19.269531 1.214844 L 19.269531 1.703125 C 19.625 1.703125 19.929688 1.996094 19.929688 2.34375 Z M 20.429688 4.558594 L 20.429688 2.34375 L 19.929688 2.34375 L 19.929688 4.558594 Z M 20.621094 4.796875 C 20.507812 4.769531 20.429688 4.671875 20.429688 4.558594 L 19.929688 4.558594 C 19.929688 4.894531 20.164062 5.1875 20.5 5.269531 Z M 24.113281 6.207031 C 23.03125 5.578125 21.855469 5.089844 20.621094 4.796875 L 20.5 5.269531 C 21.683594 5.550781 22.8125 6.015625 23.855469 6.625 Z M 24.417969 6.171875 C 24.335938 6.25 24.210938 6.265625 24.113281 6.207031 L 23.855469 6.625 C 24.148438 6.796875 24.527344 6.75 24.769531 6.515625 Z M 26.027344 4.605469 L 24.417969 6.171875 L 24.769531 6.515625 L 26.378906 4.949219 Z M 27.671875 4.605469 C 27.210938 4.15625 26.488281 4.15625 26.027344 4.605469 L 26.378906 4.949219 C 26.648438 4.6875 27.050781 4.6875 27.320312 4.949219 Z M 30.3125 7.171875 L 27.671875 4.605469 L 27.320312 4.949219 L 29.960938 7.515625 Z M 30.3125 8.773438 C 30.777344 8.324219 30.777344 7.621094 30.3125 7.171875 L 29.960938 7.515625 C 30.226562 7.773438 30.226562 8.167969 29.960938 8.429688 Z M 28.703125 10.335938 L 30.3125 8.773438 L 29.960938 8.429688 L 28.351562 9.996094 Z M 28.664062 10.632812 C 28.605469 10.539062 28.621094 10.417969 28.703125 10.335938 L 28.351562 9.996094 C 28.105469 10.230469 28.058594 10.597656 28.238281 10.886719 Z M 30.117188 14.03125 C 29.804688 12.828125 29.3125 11.683594 28.664062 10.632812 L 28.238281 10.886719 C 28.859375 11.894531 29.332031 12.992188 29.632812 14.148438 Z M 30.359375 14.214844 C 30.246094 14.214844 30.144531 14.136719 30.117188 14.03125 L 29.632812 14.148438 C 29.71875 14.472656 30.015625 14.699219 30.359375 14.699219 Z M 32.621094 14.214844 L 30.359375 14.214844 L 30.359375 14.699219 L 32.621094 14.699219 Z M 33.800781 15.339844 C 33.800781 14.714844 33.277344 14.214844 32.621094 14.214844 L 32.621094 14.699219 C 33.007812 14.699219 33.300781 14.988281 33.300781 15.339844 Z M 33.800781 18.976562 L 33.800781 15.339844 L 33.300781 15.339844 L 33.300781 18.976562 Z M 32.621094 20.105469 C 33.273438 20.105469 33.800781 19.589844 33.800781 18.976562 L 33.300781 18.976562 C 33.300781 19.316406 33.003906 19.621094 32.621094 19.621094 Z M 30.359375 20.105469 L 32.621094 20.105469 L 32.621094 19.621094 L 30.359375 19.621094 Z M 30.117188 20.292969 C 30.144531 20.183594 30.246094 20.105469 30.359375 20.105469 L 30.359375 19.621094 C 30.015625 19.621094 29.710938 19.851562 29.632812 20.175781 Z M 28.664062 23.683594 C 29.3125 22.632812 29.8125 21.507812 30.117188 20.292969 L 29.632812 20.175781 C 29.339844 21.34375 28.863281 22.421875 28.238281 23.433594 Z M 28.703125 23.980469 C 28.621094 23.902344 28.605469 23.78125 28.664062 23.683594 L 28.238281 23.433594 C 28.058594 23.722656 28.105469 24.089844 28.351562 24.324219 Z M 30.3125 25.546875 L 28.703125 23.980469 L 28.351562 24.324219 L 29.960938 25.890625 Z M 30.3125 27.148438 C 30.777344 26.699219 30.777344 25.996094 30.3125 25.546875 L 29.960938 25.890625 C 30.226562 26.148438 30.226562 26.542969 29.960938 26.804688 Z M 27.675781 29.710938 L 30.3125 27.148438 L 29.960938 26.804688 L 27.324219 29.367188 Z M 26.027344 29.714844 C 26.488281 30.144531 27.210938 30.144531 27.671875 29.714844 L 27.328125 29.363281 C 27.058594 29.613281 26.640625 29.613281 26.371094 29.363281 Z M 24.417969 28.148438 L 26.023438 29.710938 L 26.375 29.367188 L 24.769531 27.804688 Z M 24.113281 28.113281 C 24.210938 28.054688 24.335938 28.070312 24.417969 28.148438 L 24.769531 27.804688 C 24.527344 27.570312 24.148438 27.523438 23.855469 27.695312 Z M 20.621094 29.503906 C 21.855469 29.207031 23.035156 28.742188 24.113281 28.113281 L 23.855469 27.695312 C 22.820312 28.296875 21.691406 28.746094 20.5 29.03125 Z M 20.429688 29.742188 C 20.429688 29.628906 20.507812 29.53125 20.621094 29.503906 L 20.5 29.03125 C 20.164062 29.113281 19.929688 29.40625 19.929688 29.742188 Z M 20.429688 31.957031 L 20.429688 29.742188 L 19.929688 29.742188 L 19.929688 31.957031 Z M 19.269531 33.085938 C 19.90625 33.085938 20.429688 32.589844 20.429688 31.957031 L 19.929688 31.957031 C 19.929688 32.316406 19.632812 32.597656 19.269531 32.597656 Z M 15.53125 33.085938 L 19.269531 33.085938 L 19.269531 32.597656 L 15.53125 32.597656 Z M 14.371094 31.957031 C 14.371094 32.589844 14.894531 33.085938 15.53125 33.085938 L 15.53125 32.597656 C 15.167969 32.597656 14.871094 32.316406 14.871094 31.957031 Z M 14.371094 29.742188 L 14.371094 31.957031 L 14.871094 31.957031 L 14.871094 29.742188 Z M 14.179688 29.503906 C 14.292969 29.53125 14.371094 29.628906 14.371094 29.742188 L 14.871094 29.742188 C 14.871094 29.40625 14.632812 29.113281 14.300781 29.03125 Z M 10.6875 28.113281 C 11.765625 28.742188 12.941406 29.207031 14.179688 29.503906 L 14.300781 29.03125 C 13.109375 28.746094 11.980469 28.296875 10.945312 27.695312 Z M 10.382812 28.148438 C 10.464844 28.070312 10.589844 28.054688 10.6875 28.113281 L 10.945312 27.695312 C 10.652344 27.523438 10.273438 27.570312 10.03125 27.804688 Z M 8.777344 29.710938 L 10.382812 28.148438 L 10.03125 27.804688 L 8.421875 29.367188 Z M 7.128906 29.714844 C 7.589844 30.144531 8.3125 30.144531 8.773438 29.714844 L 8.425781 29.363281 C 8.160156 29.613281 7.742188 29.613281 7.472656 29.363281 Z M 4.488281 27.148438 L 7.125 29.710938 L 7.476562 29.367188 L 4.839844 26.804688 Z M 4.488281 25.546875 C 4.023438 25.996094 4.023438 26.699219 4.488281 27.148438 L 4.839844 26.804688 C 4.574219 26.542969 4.574219 26.148438 4.839844 25.890625 Z M 6.097656 23.980469 L 4.488281 25.546875 L 4.839844 25.890625 L 6.449219 24.324219 Z M 6.132812 23.683594 C 6.195312 23.78125 6.179688 23.902344 6.097656 23.980469 L 6.449219 24.324219 C 6.695312 24.089844 6.738281 23.722656 6.5625 23.433594 Z M 4.683594 20.289062 C 4.996094 21.511719 5.488281 22.636719 6.132812 23.683594 L 6.5625 23.433594 C 5.941406 22.425781 5.46875 21.34375 5.167969 20.171875 Z M 4.441406 20.105469 C 4.554688 20.105469 4.65625 20.179688 4.683594 20.289062 L 5.167969 20.171875 C 5.085938 19.847656 4.785156 19.621094 4.441406 19.621094 Z M 2.179688 20.105469 L 4.441406 20.105469 L 4.441406 19.621094 L 2.179688 19.621094 Z M 1 18.976562 C 1 19.589844 1.527344 20.105469 2.179688 20.105469 L 2.179688 19.621094 C 1.796875 19.621094 1.5 19.316406 1.5 18.976562 Z M 1 15.339844 L 1 18.976562 L 1.5 18.976562 L 1.5 15.339844 Z M 2.179688 14.214844 C 1.523438 14.214844 1 14.714844 1 15.339844 L 1.5 15.339844 C 1.5 14.988281 1.792969 14.699219 2.179688 14.699219 Z M 4.441406 14.214844 L 2.179688 14.214844 L 2.179688 14.699219 L 4.441406 14.699219 Z M 4.683594 14.027344 C 4.65625 14.136719 4.554688 14.214844 4.441406 14.214844 L 4.441406 14.699219 C 4.785156 14.699219 5.085938 14.472656 5.167969 14.144531 Z M 6.132812 10.632812 C 5.484375 11.683594 4.988281 12.828125 4.683594 14.027344 L 5.167969 14.144531 C 5.460938 12.996094 5.9375 11.894531 6.5625 10.886719 Z M 6.097656 10.335938 C 6.179688 10.417969 6.195312 10.539062 6.132812 10.632812 L 6.5625 10.886719 C 6.738281 10.597656 6.695312 10.230469 6.449219 9.996094 Z M 4.488281 8.773438 L 6.097656 10.335938 L 6.449219 9.996094 L 4.839844 8.429688 Z M 4.488281 7.171875 C 4.023438 7.621094 4.023438 8.324219 4.488281 8.773438 L 4.839844 8.429688 C 4.574219 8.167969 4.574219 7.773438 4.839844 7.515625 Z M 7.125 4.605469 L 4.488281 7.171875 L 4.839844 7.515625 L 7.480469 4.949219 Z M 8.773438 4.605469 C 8.3125 4.15625 7.589844 4.15625 7.125 4.605469 L 7.480469 4.949219 C 7.746094 4.6875 8.152344 4.6875 8.417969 4.949219 Z M 10.382812 6.171875 L 8.773438 4.605469 L 8.417969 4.949219 L 10.03125 6.515625 Z M 10.6875 6.207031 C 10.589844 6.265625 10.464844 6.25 10.382812 6.171875 L 10.03125 6.515625 C 10.273438 6.75 10.652344 6.796875 10.945312 6.625 Z M 14.179688 4.796875 C 12.945312 5.101562 11.769531 5.578125 10.6875 6.207031 L 10.945312 6.625 C 11.984375 6.019531 13.113281 5.558594 14.304688 5.265625 Z M 14.371094 4.558594 C 14.371094 4.671875 14.292969 4.769531 14.179688 4.796875 L 14.304688 5.265625 C 14.636719 5.183594 14.871094 4.894531 14.871094 4.558594 Z M 14.371094 2.34375 L 14.371094 4.558594 L 14.871094 4.558594 L 14.871094 2.34375 Z M 13.871094 2.34375 C 13.871094 1.460938 14.621094 0.730469 15.53125 0.730469 L 15.53125 0.242188 C 14.347656 0.242188 13.371094 1.191406 13.371094 2.34375 Z M 13.871094 4.1875 L 13.871094 2.34375 L 13.371094 2.34375 L 13.371094 4.1875 Z M 10.765625 5.601562 C 11.683594 5.101562 12.664062 4.703125 13.6875 4.421875 L 13.550781 3.953125 C 12.488281 4.246094 11.472656 4.660156 10.519531 5.179688 Z M 9.125 4.261719 L 10.464844 5.5625 L 10.820312 5.21875 L 9.480469 3.917969 Z M 6.773438 4.261719 C 7.429688 3.621094 8.46875 3.621094 9.125 4.261719 L 9.480469 3.917969 C 8.628906 3.089844 7.273438 3.089844 6.417969 3.917969 Z M 4.132812 6.828125 L 6.773438 4.261719 L 6.417969 3.917969 L 3.78125 6.484375 Z M 4.132812 9.117188 C 3.476562 8.476562 3.476562 7.46875 4.132812 6.828125 L 3.78125 6.484375 C 2.925781 7.3125 2.925781 8.628906 3.78125 9.460938 Z M 5.472656 10.417969 L 4.132812 9.117188 L 3.78125 9.460938 L 5.117188 10.761719 Z M 4.296875 13.550781 C 4.582031 12.554688 4.996094 11.601562 5.511719 10.707031 L 5.078125 10.46875 C 4.542969 11.394531 4.109375 12.382812 3.8125 13.417969 Z M 2.179688 13.726562 L 4.054688 13.726562 L 4.054688 13.242188 L 2.179688 13.242188 Z M 0.5 15.339844 C 0.5 14.433594 1.257812 13.726562 2.179688 13.726562 L 2.179688 13.242188 C 0.988281 13.242188 0 14.15625 0 15.339844 Z M 0.5 18.976562 L 0.5 15.339844 L 0 15.339844 L 0 18.976562 Z M 2.179688 20.589844 C 1.253906 20.589844 0.5 19.863281 0.5 18.976562 L 0 18.976562 C 0 20.136719 0.984375 21.078125 2.179688 21.078125 Z M 4.054688 20.589844 L 2.179688 20.589844 L 2.179688 21.078125 L 4.054688 21.078125 Z M 5.511719 23.609375 C 4.996094 22.71875 4.585938 21.777344 4.296875 20.769531 L 3.816406 20.902344 C 4.117188 21.945312 4.542969 22.925781 5.078125 23.851562 Z M 4.132812 25.203125 L 5.472656 23.902344 L 5.117188 23.558594 L 3.78125 24.859375 Z M 4.132812 27.492188 C 3.476562 26.851562 3.476562 25.84375 4.132812 25.203125 L 3.78125 24.859375 C 2.925781 25.6875 2.925781 27.003906 3.78125 27.835938 Z M 6.773438 30.058594 L 4.132812 27.492188 L 3.78125 27.835938 L 6.417969 30.402344 Z M 6.773438 30.402344 L 6.417969 30.058594 Z M 6.777344 30.0625 L 6.769531 30.054688 L 6.421875 30.40625 L 6.429688 30.410156 Z M 9.125 30.0625 C 8.464844 30.675781 7.433594 30.675781 6.777344 30.0625 L 6.429688 30.410156 C 7.28125 31.207031 8.621094 31.207031 9.46875 30.410156 Z M 9.476562 30.066406 L 9.117188 30.40625 Z M 9.125 30.058594 L 9.121094 30.0625 L 9.472656 30.40625 L 9.480469 30.402344 Z M 10.464844 28.757812 L 9.125 30.058594 L 9.480469 30.402344 L 10.820312 29.101562 Z M 13.6875 29.882812 C 12.664062 29.605469 11.683594 29.214844 10.765625 28.714844 L 10.519531 29.140625 C 11.472656 29.660156 12.492188 30.066406 13.554688 30.351562 Z M 13.871094 31.957031 L 13.871094 30.117188 L 13.371094 30.117188 L 13.371094 31.957031 Z M 15.53125 33.570312 C 14.625 33.570312 13.871094 32.859375 13.871094 31.957031 L 13.371094 31.957031 C 13.371094 33.132812 14.351562 34.058594 15.53125 34.058594 Z M 19.269531 33.570312 L 15.53125 33.570312 L 15.53125 34.058594 L 19.269531 34.058594 Z M 20.929688 31.957031 C 20.929688 32.859375 20.175781 33.570312 19.269531 33.570312 L 19.269531 34.058594 C 20.445312 34.058594 21.429688 33.132812 21.429688 31.957031 Z M 20.929688 30.117188 L 20.929688 31.957031 L 21.429688 31.957031 L 21.429688 30.117188 Z M 24.035156 28.714844 C 23.117188 29.214844 22.136719 29.605469 21.113281 29.882812 L 21.246094 30.351562 C 22.308594 30.066406 23.328125 29.660156 24.28125 29.140625 Z M 25.671875 30.058594 L 24.335938 28.757812 L 23.980469 29.101562 L 25.320312 30.402344 Z M 25.671875 30.40625 L 25.324219 30.054688 Z M 25.675781 30.0625 L 25.667969 30.054688 L 25.324219 30.40625 L 25.328125 30.410156 Z M 28.023438 30.0625 C 27.367188 30.675781 26.332031 30.675781 25.675781 30.0625 L 25.328125 30.410156 C 26.179688 31.207031 27.519531 31.207031 28.371094 30.410156 Z M 28.375 30.0625 L 28.019531 30.40625 Z M 28.027344 30.058594 L 28.019531 30.0625 L 28.375 30.40625 L 28.378906 30.402344 Z M 30.667969 27.492188 L 28.027344 30.058594 L 28.378906 30.402344 L 31.019531 27.835938 Z M 30.667969 25.203125 C 31.324219 25.84375 31.324219 26.851562 30.667969 27.492188 L 31.019531 27.835938 C 31.875 27.003906 31.875 25.6875 31.019531 24.859375 Z M 29.328125 23.902344 L 30.667969 25.203125 L 31.019531 24.859375 L 29.683594 23.558594 Z M 30.507812 20.769531 C 30.21875 21.777344 29.804688 22.722656 29.289062 23.609375 L 29.722656 23.851562 C 30.257812 22.929688 30.691406 21.949219 30.988281 20.898438 Z M 32.621094 20.589844 L 30.746094 20.589844 L 30.746094 21.078125 L 32.621094 21.078125 Z M 34.300781 18.976562 C 34.300781 19.863281 33.546875 20.589844 32.621094 20.589844 L 32.621094 21.078125 C 33.816406 21.078125 34.800781 20.136719 34.800781 18.976562 Z M 34.300781 15.339844 L 34.300781 18.976562 L 34.800781 18.976562 L 34.800781 15.339844 Z M 32.621094 13.726562 C 33.542969 13.726562 34.300781 14.433594 34.300781 15.339844 L 34.800781 15.339844 C 34.800781 14.15625 33.808594 13.242188 32.621094 13.242188 Z M 30.742188 13.726562 L 32.621094 13.726562 L 32.621094 13.242188 L 30.742188 13.242188 Z M 29.289062 10.707031 C 29.804688 11.601562 30.210938 12.554688 30.503906 13.550781 L 30.984375 13.417969 C 30.683594 12.386719 30.257812 11.398438 29.722656 10.46875 Z M 30.667969 9.117188 L 29.328125 10.417969 L 29.683594 10.761719 L 31.019531 9.460938 Z M 30.667969 6.828125 C 31.324219 7.46875 31.324219 8.476562 30.667969 9.117188 L 31.019531 9.460938 C 31.875 8.628906 31.875 7.3125 31.019531 6.484375 Z M 28.027344 4.261719 L 30.667969 6.828125 L 31.019531 6.484375 L 28.378906 3.917969 Z M 25.671875 4.261719 C 26.332031 3.621094 27.367188 3.621094 28.027344 4.261719 L 28.378906 3.917969 C 27.527344 3.089844 26.171875 3.089844 25.320312 3.917969 Z M 24.335938 5.5625 L 25.671875 4.261719 L 25.320312 3.917969 L 23.980469 5.21875 Z M 21.113281 4.417969 C 22.136719 4.695312 23.117188 5.101562 24.035156 5.601562 L 24.28125 5.179688 C 23.332031 4.660156 22.3125 4.238281 21.246094 3.949219 Z M 20.929688 2.34375 L 20.929688 4.183594 L 21.429688 4.183594 L 21.429688 2.34375 Z M 19.269531 0.730469 C 20.179688 0.730469 20.929688 1.460938 20.929688 2.34375 L 21.429688 2.34375 C 21.429688 1.191406 20.453125 0.242188 19.269531 0.242188 Z M 15.53125 0.730469 L 19.269531 0.730469 L 19.269531 0.242188 L 15.53125 0.242188 Z M 17.410156 11.871094 C 14.40625 11.871094 11.96875 14.238281 11.96875 17.160156 L 12.46875 17.160156 C 12.46875 14.507812 14.683594 12.355469 17.410156 12.355469 Z M 22.851562 17.160156 C 22.851562 14.238281 20.414062 11.871094 17.410156 11.871094 L 17.410156 12.355469 C 20.136719 12.355469 22.351562 14.507812 22.351562 17.160156 Z M 17.410156 22.449219 C 20.414062 22.449219 22.851562 20.082031 22.851562 17.160156 L 22.351562 17.160156 C 22.351562 19.8125 20.136719 21.960938 17.410156 21.960938 Z M 11.96875 17.160156 C 11.96875 20.082031 14.40625 22.449219 17.410156 22.449219 L 17.410156 21.960938 C 14.683594 21.960938 12.46875 19.8125 12.46875 17.160156 Z M 11.46875 17.160156 C 11.46875 13.96875 14.128906 11.382812 17.410156 11.382812 L 17.410156 10.898438 C 13.851562 10.898438 10.96875 13.703125 10.96875 17.160156 Z M 17.410156 22.933594 C 14.128906 22.933594 11.46875 20.347656 11.46875 17.160156 L 10.96875 17.160156 C 10.96875 20.617188 13.851562 23.421875 17.410156 23.421875 Z M 23.351562 17.160156 C 23.351562 20.347656 20.691406 22.933594 17.410156 22.933594 L 17.410156 23.421875 C 20.964844 23.421875 23.851562 20.617188 23.851562 17.160156 Z M 17.410156 11.382812 C 20.691406 11.382812 23.351562 13.96875 23.351562 17.160156 L 23.851562 17.160156 C 23.851562 13.703125 20.964844 10.898438 17.410156 10.898438 Z M 17.410156 11.382812 "/>
</g>
</svg>
