<svg width="36" height="36" viewBox="0 0 36 36" fill="none" xmlns="http://www.w3.org/2000/svg">
<path fill-rule="evenodd" clip-rule="evenodd" d="M15.8645 4.05081C15.8645 3.58194 16.2572 3.1855 16.7276 3.1855H20.2724C20.7428 3.1855 21.1355 3.58194 21.1355 4.05081V6.21219C21.1355 6.43328 21.2836 6.62006 21.4948 6.67343C22.6431 6.95551 23.7358 7.42057 24.7433 8.02286C24.9285 8.13722 25.1656 8.10672 25.3211 7.95424L26.8472 6.42566C27.1917 6.07877 27.7288 6.07877 28.0733 6.42566L30.5773 8.9301C30.9218 9.27699 30.9218 9.81066 30.5773 10.1575L29.0512 11.6823C28.8956 11.8386 28.866 12.0788 28.9808 12.2656C29.5809 13.2681 30.0365 14.3621 30.3291 15.5133C30.3847 15.723 30.5736 15.8717 30.7884 15.8717H32.9331C33.4294 15.8717 33.8147 16.2567 33.8147 16.7332V20.2821C33.8147 20.7471 33.422 21.1474 32.9331 21.1474H30.7884C30.5699 21.1474 30.381 21.296 30.3291 21.5095C30.0476 22.6722 29.5846 23.7471 28.9808 24.7535C28.866 24.9403 28.8956 25.1804 29.0512 25.3329L30.5773 26.8615C30.9218 27.2084 30.9218 27.742 30.5773 28.0889L28.077 30.5896C27.7288 30.9212 27.1917 30.9212 26.8435 30.5896L25.3211 29.0648C25.1656 28.9123 24.9285 28.8818 24.7433 28.9924C23.7395 29.5947 22.6468 30.0406 21.4948 30.3265C21.2836 30.3761 21.1355 30.5667 21.1355 30.7878V32.9492C21.1355 33.4333 20.7465 33.8107 20.2724 33.8107H16.7276C16.2534 33.8107 15.8645 33.4333 15.8645 32.9492V30.7878C15.8645 30.5667 15.7164 30.3761 15.5015 30.3265C14.3532 30.0406 13.2605 29.5947 12.2567 28.9924C12.0715 28.8818 11.8307 28.9123 11.6789 29.0648L10.1565 30.5896C9.80828 30.9212 9.26748 30.9212 8.923 30.5896L6.42271 28.0889C6.07453 27.742 6.07453 27.2084 6.42271 26.8615L7.94881 25.3329C8.10439 25.1804 8.13031 24.9403 8.01919 24.7535C7.41912 23.7509 6.96352 22.6722 6.67089 21.5057C6.61903 21.296 6.42642 21.1474 6.21158 21.1474H4.0669C3.57425 21.1474 3.18532 20.7471 3.18532 20.2821V16.7332C3.18532 16.2567 3.57054 15.8717 4.0669 15.8717H6.21158C6.43012 15.8717 6.61903 15.723 6.67089 15.5095C6.9524 14.3659 7.41542 13.2681 8.01919 12.2656C8.13031 12.0788 8.10439 11.8386 7.94881 11.6823L6.42271 10.1575C6.07453 9.81066 6.07453 9.27699 6.42271 8.9301L8.9267 6.42566C9.27118 6.07877 9.80458 6.07877 10.1528 6.42566L11.6789 7.95424C11.8307 8.10672 12.0715 8.13722 12.2567 8.02286C13.2605 7.42057 14.3569 6.96695 15.5052 6.67343C15.7164 6.62006 15.8645 6.42947 15.8645 6.21219V4.05081ZM16.7276 2.23633C15.7349 2.23633 14.9163 3.0559 14.9163 4.05081V5.85005C13.9273 6.13213 12.979 6.52476 12.09 7.02413L10.8232 5.75475C10.1046 5.03811 8.97115 5.03811 8.25625 5.75475L5.75227 8.2592C5.03737 8.97585 5.03737 10.1118 5.75227 10.8284L7.01908 12.0978C6.52273 12.9822 6.12268 13.9314 5.84487 14.9225H4.0669C3.06678 14.9225 2.23706 15.7154 2.23706 16.7332V20.2821C2.23706 21.2808 3.05938 22.0966 4.0669 22.0966H5.84487C6.12639 23.0991 6.52273 24.0368 7.01908 24.9212L5.75227 26.1906C5.03737 26.9072 5.03737 28.0432 5.75227 28.7598L8.25625 31.2643L8.25996 31.2681C8.97485 31.9581 10.1009 31.9581 10.8158 31.2681L10.8232 31.2643L12.09 29.9949C12.979 30.4905 13.9273 30.8793 14.9163 31.1537V32.9492C14.9163 33.9631 15.7386 34.7598 16.7276 34.7598H20.2724C21.2614 34.7598 22.0837 33.9631 22.0837 32.9492V31.1537C23.0727 30.8793 24.021 30.4905 24.9063 29.9949L26.1768 31.2643L26.1842 31.2681C26.8991 31.9581 28.0251 31.9581 28.7363 31.2681L28.7437 31.2643L31.2477 28.7598C31.9626 28.0432 31.9626 26.9072 31.2477 26.1906L29.9772 24.9212C30.4773 24.0368 30.8773 23.0991 31.1551 22.0966H32.9331C33.9369 22.0966 34.7629 21.2808 34.7629 20.2821V16.7332C34.7629 15.7154 33.9332 14.9225 32.9331 14.9225H31.1514C30.8699 13.9352 30.4773 12.986 29.9772 12.0978L31.2477 10.8284C31.9626 10.1118 31.9626 8.97585 31.2477 8.2592L28.7437 5.75475C28.0288 5.03811 26.8917 5.03811 26.1768 5.75475L24.91 7.02413C24.0247 6.52476 23.0764 6.12451 22.0837 5.84624V4.05081C22.0837 3.0559 21.2651 2.23633 20.2724 2.23633H16.7276ZM13.5865 18.5095C13.5865 15.7878 15.7904 13.5845 18.5093 13.5845C21.2281 13.5845 23.432 15.7878 23.432 18.5095C23.432 21.2274 21.2281 23.4345 18.5093 23.4345C15.7904 23.4345 13.5865 21.2274 13.5865 18.5095ZM18.5093 12.6353C15.2682 12.6353 12.6382 15.2656 12.6382 18.5095C12.6382 21.7535 15.2682 24.3837 18.5093 24.3837C21.7504 24.3837 24.3803 21.7535 24.3803 18.5095C24.3803 15.2656 21.7504 12.6353 18.5093 12.6353Z" fill="#61676B"/>
<path d="M28.077 30.5896L28.24 30.7611L28.2437 30.7573L28.077 30.5896ZM26.8435 30.5896L26.6768 30.7573L26.6805 30.7611L26.8435 30.5896ZM10.1565 30.5896L10.3195 30.7611L10.3232 30.7573L10.1565 30.5896ZM8.923 30.5896L8.75631 30.7573L8.76002 30.7611L8.923 30.5896ZM14.9163 5.85006L14.9792 6.07878C15.0829 6.04828 15.1533 5.9568 15.1533 5.85006H14.9163ZM12.09 7.02414L11.9233 7.19187C11.9974 7.26811 12.116 7.28335 12.2086 7.22999L12.09 7.02414ZM7.01908 12.0978L7.22651 12.2122C7.27837 12.1207 7.26355 12.0064 7.18947 11.9301L7.01908 12.0978ZM5.84488 14.9225V15.1588C5.9523 15.1588 6.0449 15.0902 6.07453 14.9873L5.84488 14.9225ZM5.84488 22.0966L6.07453 22.0318C6.0449 21.9288 5.9523 21.8564 5.84488 21.8564V22.0966ZM7.01908 24.9212L7.18947 25.0889C7.26355 25.0127 7.27837 24.8983 7.22651 24.803L7.01908 24.9212ZM8.25626 31.2643L8.42294 31.432C8.51555 31.3367 8.51555 31.1881 8.42294 31.0966L8.25626 31.2643ZM8.25626 31.2643L8.08587 31.0966C8.04142 31.1423 8.01549 31.2033 8.01919 31.2681C8.01919 31.3291 8.04512 31.3901 8.08957 31.4358L8.25626 31.2643ZM10.8158 31.2681L10.9862 31.1042C10.8936 31.0089 10.7454 31.0089 10.6528 31.1004L10.8158 31.2681ZM10.8158 31.2681L10.6454 31.4358C10.6899 31.4816 10.7491 31.5083 10.8158 31.5083C10.8788 31.5083 10.938 31.4816 10.9825 31.4358L10.8158 31.2681ZM12.09 29.9949L12.2086 29.7853C12.116 29.7357 11.9974 29.751 11.9233 29.8272L12.09 29.9949ZM14.9163 31.1537H15.1533C15.1533 31.047 15.0829 30.9517 14.9792 30.925L14.9163 31.1537ZM22.0837 31.1537L22.0208 30.925C21.9171 30.9517 21.8467 31.047 21.8467 31.1537H22.0837ZM24.9063 29.9949L25.0767 29.8272C24.9989 29.751 24.884 29.7357 24.7914 29.7853L24.9063 29.9949ZM26.1768 31.2643L26.3435 31.4358C26.3879 31.3901 26.4139 31.3291 26.4139 31.2643C26.4139 31.2033 26.3879 31.1423 26.3435 31.0966L26.1768 31.2643ZM26.1768 31.2643L26.0138 31.0928C25.9657 31.1385 25.9397 31.1995 25.9397 31.2643C25.9397 31.3291 25.9657 31.3901 26.0138 31.4358L26.1768 31.2643ZM28.7363 31.2681L28.9067 31.1004C28.8141 31.0089 28.666 31.0089 28.5734 31.1004L28.7363 31.2681ZM28.7363 31.2681L28.5696 31.4358C28.6141 31.4816 28.6734 31.5083 28.7363 31.5083C28.7993 31.5083 28.8623 31.4816 28.9067 31.4358L28.7363 31.2681ZM29.9772 24.9212L29.7735 24.803C29.7216 24.8983 29.7364 25.0127 29.8105 25.0889L29.9772 24.9212ZM31.1551 22.0966V21.8564C31.0477 21.8564 30.9551 21.9288 30.9292 22.0318L31.1551 22.0966ZM31.1514 14.9225L30.9255 14.9873C30.9551 15.0902 31.0477 15.1588 31.1514 15.1588V14.9225ZM29.9772 12.0978L29.8105 11.9301C29.7364 12.0064 29.7216 12.1207 29.7735 12.2122L29.9772 12.0978ZM24.91 7.02414L24.7914 7.22999C24.884 7.28335 25.0026 7.26811 25.0767 7.19187L24.91 7.02414ZM22.0837 5.84625H21.8467C21.8467 5.95299 21.9171 6.04828 22.0208 6.07497L22.0837 5.84625ZM16.7276 2.94917C16.1275 2.94917 15.6275 3.45235 15.6275 4.05083H16.1016C16.1016 3.71156 16.3905 3.42567 16.7276 3.42567V2.94917ZM20.2724 2.94917H16.7276V3.42567H20.2724V2.94917ZM21.3725 4.05083C21.3725 3.45235 20.8725 2.94917 20.2724 2.94917V3.42567C20.6095 3.42567 20.8984 3.71156 20.8984 4.05083H21.3725ZM21.3725 6.2122V4.05083H20.8984V6.2122H21.3725ZM21.554 6.44473C21.4466 6.41804 21.3725 6.32274 21.3725 6.2122H20.8984C20.8984 6.54002 21.1207 6.82592 21.4392 6.90597L21.554 6.44473ZM24.8655 7.82084C23.8395 7.20711 22.7245 6.73062 21.554 6.44473L21.4392 6.90597C22.5616 7.18043 23.6321 7.63405 24.6211 8.22872L24.8655 7.82084ZM25.1545 7.78653C25.0767 7.86277 24.9581 7.87802 24.8655 7.82084L24.6211 8.22872C24.8989 8.39644 25.2582 8.3507 25.4878 8.12198L25.1545 7.78653ZM26.6805 6.25794L25.1545 7.78653L25.4878 8.12198L27.0139 6.59339L26.6805 6.25794ZM28.24 6.25794C27.8029 5.81957 27.1176 5.81957 26.6805 6.25794L27.0139 6.59339C27.2695 6.33799 27.651 6.33799 27.9066 6.59339L28.24 6.25794ZM30.744 8.76239L28.24 6.25794L27.9066 6.59339L30.4106 9.09784L30.744 8.76239ZM30.744 10.3253C31.1848 9.88691 31.1848 9.20076 30.744 8.76239L30.4106 9.09784C30.6625 9.34943 30.6625 9.73443 30.4106 9.98983L30.744 10.3253ZM29.2179 11.8501L30.744 10.3253L30.4106 9.98983L28.8845 11.5184L29.2179 11.8501ZM29.1808 12.1398C29.1253 12.0483 29.1401 11.9301 29.2179 11.8501L28.8845 11.5184C28.6511 11.7471 28.6067 12.1055 28.7771 12.3875L29.1808 12.1398ZM30.5588 15.4562C30.2624 14.2821 29.7957 13.1652 29.1808 12.1398L28.7771 12.3875C29.366 13.371 29.8142 14.4422 30.0995 15.5705L30.5588 15.4562ZM30.7884 15.6353C30.681 15.6353 30.5847 15.5591 30.5588 15.4562L30.0995 15.5705C30.1809 15.8869 30.4625 16.108 30.7884 16.108V15.6353ZM32.9331 15.6353H30.7884V16.108H32.9331V15.6353ZM34.0517 16.7332C34.0517 16.1233 33.5554 15.6353 32.9331 15.6353V16.108C33.2998 16.108 33.5776 16.3901 33.5776 16.7332H34.0517ZM34.0517 20.2821V16.7332H33.5776V20.2821H34.0517ZM32.9331 21.3837C33.5517 21.3837 34.0517 20.8806 34.0517 20.2821H33.5776C33.5776 20.6137 33.2961 20.9111 32.9331 20.9111V21.3837ZM30.7884 21.3837H32.9331V20.9111H30.7884V21.3837ZM30.5588 21.5667C30.5847 21.46 30.681 21.3837 30.7884 21.3837V20.9111C30.4625 20.9111 30.1735 21.136 30.0995 21.4524L30.5588 21.5667ZM29.1808 24.8755C29.7957 23.8501 30.2698 22.7522 30.5588 21.5667L30.0995 21.4524C29.8216 22.5921 29.3697 23.6442 28.7771 24.6315L29.1808 24.8755ZM29.2179 25.1652C29.1401 25.0889 29.1253 24.9708 29.1808 24.8755L28.7771 24.6315C28.6067 24.9136 28.6511 25.2719 28.8845 25.5006L29.2179 25.1652ZM30.744 26.6938L29.2179 25.1652L28.8845 25.5006L30.4106 27.0292L30.744 26.6938ZM30.744 28.2567C31.1848 27.8183 31.1848 27.1321 30.744 26.6938L30.4106 27.0292C30.6625 27.2808 30.6625 27.6658 30.4106 27.9212L30.744 28.2567ZM28.2437 30.7573L30.744 28.2567L30.4106 27.9212L27.9103 30.4219L28.2437 30.7573ZM26.6805 30.7611C27.1176 31.1804 27.8029 31.1804 28.24 30.7611L27.914 30.418C27.6584 30.662 27.2621 30.662 27.0065 30.418L26.6805 30.7611ZM25.1545 29.2325L26.6768 30.7573L27.0102 30.4219L25.4878 28.8971L25.1545 29.2325ZM24.8655 29.1982C24.9581 29.141 25.0767 29.1563 25.1545 29.2325L25.4878 28.8971C25.2582 28.6684 24.8989 28.6226 24.6211 28.7903L24.8655 29.1982ZM21.554 30.5553C22.7245 30.2656 23.8432 29.8119 24.8655 29.1982L24.6211 28.7903C23.6395 29.3774 22.569 29.8158 21.4392 30.094L21.554 30.5553ZM21.3725 30.7878C21.3725 30.6773 21.4466 30.582 21.554 30.5553L21.4392 30.094C21.1207 30.1741 20.8984 30.46 20.8984 30.7878H21.3725ZM21.3725 32.9492V30.7878H20.8984V32.9492H21.3725ZM20.2724 34.0508C20.8762 34.0508 21.3725 33.5667 21.3725 32.9492H20.8984C20.8984 33.2999 20.6169 33.5743 20.2724 33.5743V34.0508ZM16.7276 34.0508H20.2724V33.5743H16.7276V34.0508ZM15.6275 32.9492C15.6275 33.5667 16.1238 34.0508 16.7276 34.0508V33.5743C16.3831 33.5743 16.1016 33.2999 16.1016 32.9492H15.6275ZM15.6275 30.7878V32.9492H16.1016V30.7878H15.6275ZM15.446 30.5553C15.5534 30.582 15.6275 30.6773 15.6275 30.7878H16.1016C16.1016 30.46 15.8756 30.1741 15.5608 30.094L15.446 30.5553ZM12.1345 29.1982C13.1568 29.8119 14.2717 30.2656 15.446 30.5553L15.5608 30.094C14.431 29.8158 13.3605 29.3774 12.3789 28.7903L12.1345 29.1982ZM11.8455 29.2325C11.9233 29.1563 12.0419 29.141 12.1345 29.1982L12.3789 28.7903C12.1011 28.6226 11.7418 28.6684 11.5122 28.8971L11.8455 29.2325ZM10.3232 30.7573L11.8455 29.2325L11.5122 28.8971L9.98608 30.4219L10.3232 30.7573ZM8.76002 30.7611C9.1971 31.1804 9.88237 31.1804 10.3195 30.7611L9.98979 30.418C9.73791 30.662 9.34157 30.662 9.08598 30.418L8.76002 30.7611ZM6.25603 28.2567L8.75631 30.7573L9.08968 30.4219L6.5894 27.9212L6.25603 28.2567ZM6.25603 26.6938C5.81524 27.1321 5.81524 27.8183 6.25603 28.2567L6.5894 27.9212C6.33752 27.6658 6.33752 27.2808 6.5894 27.0292L6.25603 26.6938ZM7.78213 25.1652L6.25603 26.6938L6.5894 27.0292L8.1155 25.5006L7.78213 25.1652ZM7.81547 24.8755C7.87473 24.9708 7.85992 25.0889 7.78213 25.1652L8.1155 25.5006C8.34886 25.2719 8.38961 24.9136 8.22292 24.6315L7.81547 24.8755ZM6.44124 21.5629C6.73757 22.756 7.20429 23.8539 7.81547 24.8755L8.22292 24.6315C7.63397 23.648 7.18577 22.5921 6.90055 21.4485L6.44124 21.5629ZM6.21158 21.3837C6.319 21.3837 6.41531 21.4562 6.44124 21.5629L6.90055 21.4485C6.82276 21.1321 6.53755 20.9111 6.21158 20.9111V21.3837ZM4.0669 21.3837H6.21158V20.9111H4.0669V21.3837ZM2.94825 20.2821C2.94825 20.8806 3.44831 21.3837 4.0669 21.3837V20.9111C3.70389 20.9111 3.42238 20.6137 3.42238 20.2821H2.94825ZM2.94825 16.7332V20.2821H3.42238V16.7332H2.94825ZM4.0669 15.6353C3.44461 15.6353 2.94825 16.1233 2.94825 16.7332H3.42238C3.42238 16.3901 3.70019 16.108 4.0669 16.108V15.6353ZM6.21158 15.6353H4.0669V16.108H6.21158V15.6353ZM6.44124 15.4523C6.41531 15.5591 6.319 15.6353 6.21158 15.6353V16.108C6.53755 16.108 6.82276 15.8869 6.90055 15.5667L6.44124 15.4523ZM7.81547 12.1398C7.20058 13.1652 6.73016 14.2821 6.44124 15.4523L6.90055 15.5667C7.17836 14.446 7.63026 13.371 8.22292 12.3875L7.81547 12.1398ZM7.78213 11.8501C7.85992 11.9301 7.87473 12.0483 7.81547 12.1398L8.22292 12.3875C8.38961 12.1055 8.34886 11.7471 8.1155 11.5184L7.78213 11.8501ZM6.25603 10.3253L7.78213 11.8501L8.1155 11.5184L6.5894 9.98983L6.25603 10.3253ZM6.25603 8.76239C5.81524 9.20076 5.81524 9.88691 6.25603 10.3253L6.5894 9.98983C6.33752 9.73443 6.33752 9.34943 6.5894 9.09784L6.25603 8.76239ZM8.75631 6.25794L6.25603 8.76239L6.5894 9.09784L9.09339 6.59339L8.75631 6.25794ZM10.3195 6.25794C9.88237 5.81957 9.1971 5.81957 8.75631 6.25794L9.09339 6.59339C9.34527 6.33799 9.7305 6.33799 9.98238 6.59339L10.3195 6.25794ZM11.8455 7.78653L10.3195 6.25794L9.98238 6.59339L11.5122 8.12198L11.8455 7.78653ZM12.1345 7.82084C12.0419 7.87802 11.9233 7.86277 11.8455 7.78653L11.5122 8.12198C11.7418 8.3507 12.1011 8.39644 12.3789 8.22872L12.1345 7.82084ZM15.446 6.44473C14.2755 6.74206 13.1605 7.20711 12.1345 7.82084L12.3789 8.22872C13.3642 7.63786 14.4347 7.18806 15.5645 6.90216L15.446 6.44473ZM15.6275 6.2122C15.6275 6.32274 15.5534 6.41804 15.446 6.44473L15.5645 6.90216C15.8793 6.82211 16.1016 6.54002 16.1016 6.2122H15.6275ZM15.6275 4.05083V6.2122H16.1016V4.05083H15.6275ZM15.1533 4.05083C15.1533 3.18933 15.8645 2.47649 16.7276 2.47649V2C15.6052 2 14.6792 2.9263 14.6792 4.05083H15.1533ZM15.1533 5.85006V4.05083H14.6792V5.85006H15.1533ZM12.2086 7.22999C13.079 6.74206 14.0088 6.35324 14.9792 6.07878L14.8496 5.62135C13.8421 5.90724 12.879 6.31131 11.9752 6.8183L12.2086 7.22999ZM10.6528 5.92249L11.9233 7.19187L12.2604 6.85642L10.9899 5.58704L10.6528 5.92249ZM8.42294 5.92249C9.04524 5.29733 10.0305 5.29733 10.6528 5.92249L10.9899 5.58704C10.1824 4.77891 8.89707 4.77891 8.08587 5.58704L8.42294 5.92249ZM5.91896 8.42694L8.42294 5.92249L8.08587 5.58704L5.58559 8.09149L5.91896 8.42694ZM5.91896 10.6607C5.29667 10.0356 5.29667 9.0521 5.91896 8.42694L5.58559 8.09149C4.77439 8.89962 4.77439 10.1842 5.58559 10.9962L5.91896 10.6607ZM7.18947 11.9301L5.91896 10.6607L5.58559 10.9962L6.8524 12.2656L7.18947 11.9301ZM6.07453 14.9873C6.34493 14.0152 6.73757 13.0851 7.22651 12.2122L6.81536 11.9797C6.30789 12.8831 5.89673 13.8475 5.61522 14.8577L6.07453 14.9873ZM4.0669 15.1588H5.84488V14.6861H4.0669V15.1588ZM2.47413 16.7332C2.47413 15.8488 3.19273 15.1588 4.0669 15.1588V14.6861C2.93714 14.6861 2 15.5781 2 16.7332H2.47413ZM2.47413 20.2821V16.7332H2V20.2821H2.47413ZM4.0669 21.8564C3.18902 21.8564 2.47413 21.1474 2.47413 20.2821H2C2 21.4142 2.93344 22.3329 4.0669 22.3329V21.8564ZM5.84488 21.8564H4.0669V22.3329H5.84488V21.8564ZM7.22651 24.803C6.73757 23.9339 6.34864 23.0152 6.07453 22.0318L5.61892 22.1614C5.90414 23.1792 6.30789 24.136 6.81536 25.0394L7.22651 24.803ZM5.91896 26.3583L7.18947 25.0889L6.8524 24.7535L5.58559 26.0229L5.91896 26.3583ZM5.91896 28.5921C5.29667 27.967 5.29667 26.9835 5.91896 26.3583L5.58559 26.0229C4.77439 26.831 4.77439 28.1156 5.58559 28.9276L5.91896 28.5921ZM8.42294 31.0966L5.91896 28.5921L5.58559 28.9276L8.08587 31.432L8.42294 31.0966ZM8.42665 31.1004L8.41924 31.0928L8.08957 31.4358L8.09698 31.4396L8.42665 31.1004ZM10.6528 31.1004C10.0268 31.6989 9.04894 31.6989 8.42665 31.1004L8.09698 31.4396C8.90448 32.2173 10.175 32.2173 10.9788 31.4396L10.6528 31.1004ZM10.6528 31.0966L10.6491 31.1004L10.9825 31.4358L10.9899 31.432L10.6528 31.0966ZM11.9233 29.8272L10.6528 31.0966L10.9899 31.432L12.2604 30.1626L11.9233 29.8272ZM14.9792 30.925C14.0088 30.6544 13.079 30.2732 12.2086 29.7853L11.9752 30.2008C12.879 30.7078 13.8458 31.1042 14.8533 31.3825L14.9792 30.925ZM15.1533 32.9492V31.1537H14.6792V32.9492H15.1533ZM16.7276 34.5235C15.8682 34.5235 15.1533 33.8297 15.1533 32.9492H14.6792C14.6792 34.0966 15.6089 35 16.7276 35V34.5235ZM20.2724 34.5235H16.7276V35H20.2724V34.5235ZM21.8467 32.9492C21.8467 33.8297 21.1318 34.5235 20.2724 34.5235V35C21.3874 35 22.3208 34.0966 22.3208 32.9492H21.8467ZM21.8467 31.1537V32.9492H22.3208V31.1537H21.8467ZM24.7914 29.7853C23.921 30.2732 22.9912 30.6544 22.0208 30.925L22.1467 31.3825C23.1542 31.1042 24.121 30.7078 25.0248 30.2008L24.7914 29.7853ZM26.3435 31.0966L25.0767 29.8272L24.7396 30.1626L26.0101 31.432L26.3435 31.0966ZM26.3472 31.1004L26.3398 31.0928L26.0138 31.4358L26.0175 31.4396L26.3472 31.1004ZM28.5734 31.1004C27.9511 31.6989 26.9695 31.6989 26.3472 31.1004L26.0175 31.4396C26.825 32.2173 28.0955 32.2173 28.903 31.4396L28.5734 31.1004ZM28.5771 31.0966L28.5696 31.1004L28.9067 31.4358L28.9104 31.432L28.5771 31.0966ZM31.081 28.5921L28.5771 31.0966L28.9104 31.432L31.4144 28.9276L31.081 28.5921ZM31.081 26.3583C31.7033 26.9835 31.7033 27.967 31.081 28.5921L31.4144 28.9276C32.2256 28.1156 32.2256 26.831 31.4144 26.0229L31.081 26.3583ZM29.8105 25.0889L31.081 26.3583L31.4144 26.0229L30.1476 24.7535L29.8105 25.0889ZM30.9292 22.0318C30.6551 23.0152 30.2624 23.9377 29.7735 24.803L30.1846 25.0394C30.6921 24.1398 31.1033 23.183 31.3848 22.1576L30.9292 22.0318ZM32.9331 21.8564H31.1551V22.3329H32.9331V21.8564ZM34.5259 20.2821C34.5259 21.1474 33.811 21.8564 32.9331 21.8564V22.3329C34.0666 22.3329 35 21.4142 35 20.2821H34.5259ZM34.5259 16.7332V20.2821H35V16.7332H34.5259ZM32.9331 15.1588C33.8073 15.1588 34.5259 15.8488 34.5259 16.7332H35C35 15.5781 34.0592 14.6861 32.9331 14.6861V15.1588ZM31.1514 15.1588H32.9331V14.6861H31.1514V15.1588ZM29.7735 12.2122C30.2624 13.0851 30.6477 14.0152 30.9255 14.9873L31.3811 14.8577C31.0959 13.8513 30.6921 12.8869 30.1846 11.9797L29.7735 12.2122ZM31.081 10.6607L29.8105 11.9301L30.1476 12.2656L31.4144 10.9962L31.081 10.6607ZM31.081 8.42694C31.7033 9.0521 31.7033 10.0356 31.081 10.6607L31.4144 10.9962C32.2256 10.1842 32.2256 8.89962 31.4144 8.09149L31.081 8.42694ZM28.5771 5.92249L31.081 8.42694L31.4144 8.09149L28.9104 5.58704L28.5771 5.92249ZM26.3435 5.92249C26.9695 5.29733 27.9511 5.29733 28.5771 5.92249L28.9104 5.58704C28.1029 4.77891 26.8176 4.77891 26.0101 5.58704L26.3435 5.92249ZM25.0767 7.19187L26.3435 5.92249L26.0101 5.58704L24.7396 6.85642L25.0767 7.19187ZM22.0208 6.07497C22.9912 6.34562 23.921 6.74206 24.7914 7.22999L25.0248 6.8183C24.1247 6.31131 23.1579 5.89962 22.1467 5.61753L22.0208 6.07497ZM21.8467 4.05083V5.84625H22.3208V4.05083H21.8467ZM20.2724 2.47649C21.1355 2.47649 21.8467 3.18933 21.8467 4.05083H22.3208C22.3208 2.9263 21.3948 2 20.2724 2V2.47649ZM16.7276 2.47649H20.2724V2H16.7276V2.47649ZM18.5093 13.3482C15.6608 13.3482 13.3494 15.6582 13.3494 18.5095H13.8235C13.8235 15.9212 15.9238 13.8208 18.5093 13.8208V13.3482ZM23.6691 18.5095C23.6691 15.6582 21.3577 13.3482 18.5093 13.3482V13.8208C21.0947 13.8208 23.195 15.9212 23.195 18.5095H23.6691ZM18.5093 23.6709C21.3577 23.6709 23.6691 21.3609 23.6691 18.5095H23.195C23.195 21.0978 21.0947 23.1944 18.5093 23.1944V23.6709ZM13.3494 18.5095C13.3494 21.3609 15.6608 23.6709 18.5093 23.6709V23.1944C15.9238 23.1944 13.8235 21.0978 13.8235 18.5095H13.3494ZM12.8753 18.5095C12.8753 15.3952 15.3978 12.8717 18.5093 12.8717V12.399C15.1348 12.399 12.4012 15.136 12.4012 18.5095H12.8753ZM18.5093 24.1436C15.3978 24.1436 12.8753 21.6201 12.8753 18.5095H12.4012C12.4012 21.8831 15.1348 24.6201 18.5093 24.6201V24.1436ZM24.1432 18.5095C24.1432 21.6201 21.6207 24.1436 18.5093 24.1436V24.6201C21.88 24.6201 24.6174 21.8831 24.6174 18.5095H24.1432ZM18.5093 12.8717C21.6207 12.8717 24.1432 15.3952 24.1432 18.5095H24.6174C24.6174 15.136 21.88 12.399 18.5093 12.399V12.8717Z" fill="#61676B"/>
</svg>
