<svg width="36" height="36" viewBox="0 0 36 36" fill="none" xmlns="http://www.w3.org/2000/svg">
<g clip-path="url(#clip0_10_94)">
<path d="M14.0449 5.25098H35" stroke="#61676B" stroke-width="1.45833" stroke-linecap="round" stroke-linejoin="round"/>
<path d="M13.3001 2H8.27339C7.86313 2 7.53253 2.33068 7.53253 2.74502V7.76096C7.53253 8.17132 7.86313 8.50598 8.27339 8.50598H13.3001C13.7103 8.50598 14.0449 8.17132 14.0449 7.76096V2.74502C14.0449 2.33068 13.7103 2 13.3001 2Z" stroke="#61676B" stroke-width="1.45833" stroke-linecap="round" stroke-linejoin="round"/>
<path d="M14.0449 31.749H35" stroke="#61676B" stroke-width="1.45833" stroke-linecap="round" stroke-linejoin="round"/>
<path d="M13.3001 28.494H8.27339C7.86313 28.494 7.53253 28.8287 7.53253 29.239V34.255C7.53253 34.6653 7.86313 35 8.27339 35H13.3001C13.7103 35 14.0449 34.6653 14.0449 34.255V29.239C14.0449 28.8287 13.7103 28.494 13.3001 28.494Z" stroke="#61676B" stroke-width="1.45833" stroke-linecap="round" stroke-linejoin="round"/>
<path d="M2 18.498H22.9551" stroke="#61676B" stroke-width="1.45833" stroke-linecap="round" stroke-linejoin="round"/>
<path d="M29.4595 18.498H35" stroke="#61676B" stroke-width="1.45833" stroke-linecap="round" stroke-linejoin="round"/>
<path d="M28.7266 15.2469H23.6999C23.2897 15.2469 22.9551 15.5816 22.9551 15.992V21.0199C22.9551 21.4302 23.2897 21.7609 23.6999 21.7609H28.7266C29.1369 21.7609 29.4714 21.4302 29.4714 21.0199V15.992C29.4714 15.5816 29.1369 15.2469 28.7266 15.2469Z" stroke="#61676B" stroke-width="1.45833" stroke-linecap="round" stroke-linejoin="round"/>
</g>
<defs>
<clipPath id="clip0_10_94">
<rect width="35" height="35" fill="white" transform="translate(0.5 0.5)"/>
</clipPath>
</defs>
</svg>
