<?xml version="1.0" encoding="UTF-8"?>
<svg xmlns="http://www.w3.org/2000/svg" xmlns:xlink="http://www.w3.org/1999/xlink" width="35px" height="35px" viewBox="0 0 35 35" version="1.1">
<g id="surface1">
<path style="fill:none;stroke-width:1.5;stroke-linecap:round;stroke-linejoin:round;stroke:rgb(38.039216%,40.392157%,41.960784%);stroke-opacity:1;stroke-miterlimit:4;" d="M 13.150446 4.279018 L 34.288393 4.279018 " transform="matrix(0.972222,0,0,0.972222,0,0)"/>
<path style="fill:none;stroke-width:1.5;stroke-linecap:round;stroke-linejoin:round;stroke:rgb(38.039216%,40.392157%,41.960784%);stroke-opacity:1;stroke-miterlimit:4;" d="M 12.399107 1.000446 L 7.328571 1.000446 C 6.914732 1.000446 6.58125 1.333929 6.58125 1.751786 L 6.58125 6.810268 C 6.58125 7.224107 6.914732 7.561607 7.328571 7.561607 L 12.399107 7.561607 C 12.812946 7.561607 13.150446 7.224107 13.150446 6.810268 L 13.150446 1.751786 C 13.150446 1.333929 12.812946 1.000446 12.399107 1.000446 Z M 12.399107 1.000446 " transform="matrix(0.972222,0,0,0.972222,0,0)"/>
<path style="fill:none;stroke-width:1.5;stroke-linecap:round;stroke-linejoin:round;stroke:rgb(38.039216%,40.392157%,41.960784%);stroke-opacity:1;stroke-miterlimit:4;" d="M 13.150446 31.001786 L 34.288393 31.001786 " transform="matrix(0.972222,0,0,0.972222,0,0)"/>
<path style="fill:none;stroke-width:1.5;stroke-linecap:round;stroke-linejoin:round;stroke:rgb(38.039216%,40.392157%,41.960784%);stroke-opacity:1;stroke-miterlimit:4;" d="M 12.399107 27.719196 L 7.328571 27.719196 C 6.914732 27.719196 6.58125 28.056696 6.58125 28.470536 L 6.58125 33.529018 C 6.58125 33.942857 6.914732 34.280357 7.328571 34.280357 L 12.399107 34.280357 C 12.812946 34.280357 13.150446 33.942857 13.150446 33.529018 L 13.150446 28.470536 C 13.150446 28.056696 12.812946 27.719196 12.399107 27.719196 Z M 12.399107 27.719196 " transform="matrix(0.972222,0,0,0.972222,0,0)"/>
<path style="fill:none;stroke-width:1.5;stroke-linecap:round;stroke-linejoin:round;stroke:rgb(38.039216%,40.392157%,41.960784%);stroke-opacity:1;stroke-miterlimit:4;" d="M 1.000446 17.638393 L 22.138393 17.638393 " transform="matrix(0.972222,0,0,0.972222,0,0)"/>
<path style="fill:none;stroke-width:1.5;stroke-linecap:round;stroke-linejoin:round;stroke:rgb(38.039216%,40.392157%,41.960784%);stroke-opacity:1;stroke-miterlimit:4;" d="M 28.699554 17.638393 L 34.288393 17.638393 " transform="matrix(0.972222,0,0,0.972222,0,0)"/>
<path style="fill:none;stroke-width:1.5;stroke-linecap:round;stroke-linejoin:round;stroke:rgb(38.039216%,40.392157%,41.960784%);stroke-opacity:1;stroke-miterlimit:4;" d="M 27.960268 14.359821 L 22.889732 14.359821 C 22.475893 14.359821 22.138393 14.697321 22.138393 15.111161 L 22.138393 20.181696 C 22.138393 20.595536 22.475893 20.929018 22.889732 20.929018 L 27.960268 20.929018 C 28.374107 20.929018 28.711607 20.595536 28.711607 20.181696 L 28.711607 15.111161 C 28.711607 14.697321 28.374107 14.359821 27.960268 14.359821 Z M 27.960268 14.359821 " transform="matrix(0.972222,0,0,0.972222,0,0)"/>
</g>
</svg>
