<svg width="36" height="36" viewBox="0 0 36 36" fill="none" xmlns="http://www.w3.org/2000/svg">
<path d="M13.15 4.28003H34.29" stroke="#61676B" stroke-width="1.5" stroke-linecap="round" stroke-linejoin="round"/>
<path d="M12.4001 1H7.33008C6.91586 1 6.58008 1.33579 6.58008 1.75V6.81C6.58008 7.22421 6.91586 7.56 7.33008 7.56H12.4001C12.8143 7.56 13.1501 7.22421 13.1501 6.81V1.75C13.1501 1.33579 12.8143 1 12.4001 1Z" stroke="#61676B" stroke-width="1.5" stroke-linecap="round" stroke-linejoin="round"/>
<path d="M13.15 31H34.29" stroke="#61676B" stroke-width="1.5" stroke-linecap="round" stroke-linejoin="round"/>
<path d="M12.4001 27.72H7.33008C6.91586 27.72 6.58008 28.0558 6.58008 28.47V33.53C6.58008 33.9442 6.91586 34.28 7.33008 34.28H12.4001C12.8143 34.28 13.1501 33.9442 13.1501 33.53V28.47C13.1501 28.0558 12.8143 27.72 12.4001 27.72Z" stroke="#61676B" stroke-width="1.5" stroke-linecap="round" stroke-linejoin="round"/>
<path d="M1 17.6399H22.14" stroke="#61676B" stroke-width="1.5" stroke-linecap="round" stroke-linejoin="round"/>
<path d="M28.7 17.6399H34.29" stroke="#61676B" stroke-width="1.5" stroke-linecap="round" stroke-linejoin="round"/>
<path d="M27.96 14.36H22.89C22.4758 14.36 22.14 14.6958 22.14 15.11V20.18C22.14 20.5942 22.4758 20.93 22.89 20.93H27.96C28.3742 20.93 28.71 20.5942 28.71 20.18V15.11C28.71 14.6958 28.3742 14.36 27.96 14.36Z" stroke="#61676B" stroke-width="1.5" stroke-linecap="round" stroke-linejoin="round"/>
</svg>
