<svg width="60" height="55" viewBox="0 0 60 55" fill="none" xmlns="http://www.w3.org/2000/svg">
<path fill-rule="evenodd" clip-rule="evenodd" d="M17.955 16.5464C17.955 9.54144 23.5831 3.87439 30.488 3.87439C33.922 3.87439 37.0588 5.29572 39.3284 7.57838C41.4539 9.72722 42.8074 12.6156 42.9789 15.837L45.7211 13.5717C45.1292 10.4432 43.6151 7.64559 41.46 5.46731L41.4575 5.46483C38.6565 2.64685 34.7655 0.87439 30.488 0.87439C21.8977 0.87439 14.955 7.91326 14.955 16.5464V30.3149H5.59437C3.16585 30.3149 1.50003 32.4569 1.50003 34.7351V42.3754C1.50003 44.6095 3.12118 46.7421 5.50428 46.7946L9.13462 43.7956H5.59437C5.14926 43.7956 4.50003 43.3315 4.50003 42.3754V34.7351C4.50003 33.7714 5.14554 33.3149 5.59437 33.3149H21.8216L25.4676 30.303H17.955V16.5464ZM43.021 30.303H34.8884L31.2425 33.3149H55.3939C55.8237 33.3149 56.4882 33.7884 56.4882 34.7351V36.2351H56.5V42.3754C56.5 43.3299 55.8392 43.7956 55.4057 43.7956H18.5555L14.9239 46.7956H55.4057C57.8023 46.7956 59.5 44.6629 59.5 42.3754V34.7351V33.2351H59.2394C58.6852 31.6011 57.251 30.3149 55.3939 30.3149H46.021V21.1064L43.021 23.5847V30.303ZM57.964 8.9705C58.4962 8.53083 58.5712 7.74293 58.1316 7.2107C57.6919 6.67846 56.904 6.60343 56.3718 7.04311L1.20393 52.617C0.671692 53.0567 0.596659 53.8446 1.03634 54.3768C1.47601 54.9091 2.26391 54.9841 2.79614 54.5444L57.964 8.9705Z" fill="#03002C"/>
</svg>
