<svg width="65" height="65" viewBox="0 0 65 65" fill="none" xmlns="http://www.w3.org/2000/svg">
<path fill-rule="evenodd" clip-rule="evenodd" d="M22.6426 31.3379C22.6426 25.3762 27.4324 20.5532 33.3089 20.5532C36.2315 20.5532 38.9011 21.7628 40.8327 23.7055C42.6416 25.5343 43.7935 27.9925 43.9395 30.7341L46.2733 28.8062C45.7695 26.1437 44.4809 23.7627 42.6468 21.9089L42.6447 21.9068C40.2609 19.5085 36.9494 18 33.3089 18C25.998 18 20.0894 23.9905 20.0894 31.3379V43.0558H12.1229C10.056 43.0558 8.63832 44.8787 8.63832 46.8176V53.32C8.63832 55.2214 10.018 57.0363 12.0462 57.081L15.1358 54.5287H12.1229C11.7441 54.5287 11.1915 54.1337 11.1915 53.32V46.8176C11.1915 45.9975 11.7409 45.6089 12.1229 45.6089H25.9333L29.0363 43.0456H22.6426V31.3379ZM43.9753 43.0456H37.054L33.9511 45.6089H54.5054C54.8712 45.6089 55.4368 46.0119 55.4368 46.8176V48.0942H55.4468V53.32C55.4468 54.1323 54.8844 54.5287 54.5155 54.5287H23.1536L20.0629 57.0819H54.5155C56.5552 57.0819 58 55.2668 58 53.32V46.8176V45.541H57.7782C57.3066 44.1504 56.086 43.0558 54.5054 43.0558H46.5285V35.2187L43.9753 37.3279V43.0456ZM56.6928 24.8903C57.1457 24.5161 57.2095 23.8456 56.8354 23.3926C56.4612 22.9396 55.7906 22.8758 55.3377 23.25L8.38632 62.0363C7.93335 62.4105 7.8695 63.081 8.24369 63.534C8.61788 63.987 9.28843 64.0508 9.74139 63.6766L56.6928 24.8903Z" fill="black"/>
</svg>
