<svg width="65" height="65" viewBox="0 0 65 65" fill="none" xmlns="http://www.w3.org/2000/svg">
<path fill-rule="evenodd" clip-rule="evenodd" d="M34.283 3.29311C34.283 2.57894 33.7041 2 32.9899 2C32.2757 2 31.6968 2.57894 31.6968 3.29311V12.2839C31.6968 12.9981 32.2757 13.577 32.9899 13.577C33.7041 13.577 34.283 12.9981 34.283 12.2839V3.29311ZM22.1853 31.3445C22.1853 25.3057 27.0371 20.4203 32.9897 20.4203C35.95 20.4203 38.6541 21.6456 40.6107 23.6134C42.5743 25.5986 43.7736 28.3159 43.7736 31.3342V32.1296L43.794 32.1399V43.2036H22.1853V31.3445ZM32.9897 17.8341C25.5841 17.8341 19.5991 23.9021 19.5991 31.3445V43.2139H11.5296C9.43605 43.2139 8 45.0604 8 47.0245V53.6108C8 55.5609 9.43284 57.4214 11.5296 57.4214H54.4704C56.5365 57.4214 58 55.5828 58 53.6108V47.0245V45.7313H57.7753C57.2976 44.3226 56.0612 43.2139 54.4603 43.2139H46.3802V31.3445V30.549L46.3364 30.527C46.1386 27.127 44.699 24.0684 42.4482 21.7935L42.4461 21.7913C40.0315 19.3621 36.6772 17.8341 32.9897 17.8341ZM10.5862 47.0245C10.5862 46.1936 11.1427 45.8001 11.5296 45.8001H54.4603C54.8308 45.8001 55.4036 46.2082 55.4036 47.0245V48.3176H55.4138V53.6108C55.4138 54.4337 54.8441 54.8351 54.4704 54.8351H11.5296C11.1459 54.8351 10.5862 54.4351 10.5862 53.6108V47.0245ZM31.8107 25.3627C29.1004 25.3627 26.8721 27.5875 26.8721 30.3683C26.8721 31.0825 26.2931 31.6614 25.579 31.6614C24.8648 31.6614 24.2859 31.0825 24.2859 30.3683C24.2859 26.1826 27.6488 22.7765 31.8107 22.7765C32.5248 22.7765 33.1038 23.3554 33.1038 24.0696C33.1038 24.7838 32.5248 25.3627 31.8107 25.3627ZM53.2349 9.21716C53.7426 9.71944 53.7469 10.5382 53.2447 11.0458L46.952 17.4062C46.4497 17.9139 45.6309 17.9182 45.1233 17.416C44.6156 16.9137 44.6112 16.095 45.1134 15.5873L51.4062 9.22694C51.9084 8.71925 52.7272 8.71487 53.2349 9.21716ZM14.5837 9.22694C14.0814 8.71925 13.2627 8.71487 12.755 9.21716C12.2473 9.71944 12.2429 10.5382 12.7452 11.0458L19.0379 17.4062C19.5402 17.9139 20.359 17.9182 20.8666 17.416C21.3743 16.9137 21.3787 16.095 20.8764 15.5873L14.5837 9.22694ZM8 28.8989C8 28.1848 8.57894 27.6058 9.2931 27.6058H14.0304C14.7446 27.6058 15.3235 28.1848 15.3235 28.8989C15.3235 29.6131 14.7446 30.192 14.0304 30.192H9.2931C8.57894 30.192 8 29.6131 8 28.8989ZM51.9696 27.6058C51.2554 27.6058 50.6765 28.1848 50.6765 28.8989C50.6765 29.6131 51.2554 30.192 51.9696 30.192H56.7069C57.421 30.192 58 29.6131 58 28.8989C58 28.1848 57.421 27.6058 56.7069 27.6058H51.9696Z" fill="black"/>
</svg>
