<svg width="59" height="65" viewBox="0 0 59 65" fill="none" xmlns="http://www.w3.org/2000/svg">
<path fill-rule="evenodd" clip-rule="evenodd" d="M30.9883 2.00684C30.9883 1.17841 30.3167 0.506836 29.4883 0.506836C28.6598 0.506836 27.9883 1.17841 27.9883 2.00684V12.4362C27.9883 13.2646 28.6598 13.9362 29.4883 13.9362C30.3167 13.9362 30.9883 13.2646 30.9883 12.4362V2.00684ZM16.9549 34.5464C16.9549 27.5414 22.583 21.8744 29.488 21.8744C32.922 21.8744 36.0588 23.2957 38.3284 25.5784C40.6062 27.8812 41.9974 31.0333 41.9974 34.5345V35.4572L42.021 35.4691V48.303H16.9549V34.5464ZM29.488 18.8744C20.8976 18.8744 13.9549 25.9133 13.9549 34.5464V48.3149H4.59434C2.16582 48.3149 0.5 50.4569 0.5 52.7352V60.3754C0.5 62.6375 2.1621 64.7956 4.59434 64.7956H54.4057C56.8023 64.7956 58.5 62.6629 58.5 60.3754V52.7352V51.2352H58.2393C57.6852 49.6011 56.251 48.3149 54.3939 48.3149H45.021V34.5464V33.6237L44.9702 33.5981C44.7408 29.6542 43.0708 26.1062 40.4599 23.4673L40.4575 23.4648C37.6565 20.6469 33.7655 18.8744 29.488 18.8744ZM3.5 52.7352C3.5 51.7714 4.14551 51.3149 4.59434 51.3149H54.3939C54.8237 51.3149 55.4882 51.7884 55.4882 52.7352V54.2352H55.5V60.3754C55.5 61.3299 54.8392 61.7956 54.4057 61.7956H4.59434C4.14922 61.7956 3.5 61.3315 3.5 60.3754V52.7352ZM28.1204 27.6076C24.9765 27.6076 22.3916 30.1883 22.3916 33.4141C22.3916 34.2425 21.72 34.9141 20.8916 34.9141C20.0632 34.9141 19.3916 34.2425 19.3916 33.4141C19.3916 28.5586 23.2926 24.6076 28.1204 24.6076C28.9488 24.6076 29.6204 25.2791 29.6204 26.1076C29.6204 26.936 28.9488 27.6076 28.1204 27.6076ZM52.9725 8.87874C53.5614 9.46138 53.5664 10.4111 52.9838 11L45.6843 18.378C45.1016 18.967 44.1519 18.972 43.563 18.3894C42.9741 17.8067 42.969 16.857 43.5516 16.2681L50.8512 8.89008C51.4338 8.30117 52.3835 8.29609 52.9725 8.87874ZM8.13708 8.89008C7.55444 8.30117 6.6047 8.29609 6.01579 8.87874C5.42688 9.46138 5.42181 10.4111 6.00445 11L13.304 18.378C13.8866 18.967 14.8364 18.972 15.4253 18.3894C16.0142 17.8067 16.0193 16.857 15.4366 16.2681L8.13708 8.89008ZM0.5 31.7096C0.5 30.8812 1.17157 30.2096 2 30.2096H7.49528C8.32371 30.2096 8.99528 30.8812 8.99528 31.7096C8.99528 32.538 8.32371 33.2096 7.49528 33.2096H2C1.17157 33.2096 0.5 32.538 0.5 31.7096ZM51.5047 30.2096C50.6763 30.2096 50.0047 30.8812 50.0047 31.7096C50.0047 32.538 50.6763 33.2096 51.5047 33.2096H57C57.8284 33.2096 58.5 32.538 58.5 31.7096C58.5 30.8812 57.8284 30.2096 57 30.2096H51.5047Z" fill="#03002C"/>
</svg>
