<svg width="36" height="36" viewBox="0 0 36 36" fill="none" xmlns="http://www.w3.org/2000/svg">
<g clip-path="url(#clip0_10_40)">
<path d="M26.1858 20.4414C29.0078 20.4414 31.2946 17.4414 31.2946 13.7422C31.2946 10.0391 29.0078 7.03906 26.1858 7.03906C23.3637 7.03906 21.0806 10.0391 21.0806 13.7422C21.0806 17.4414 23.3637 20.4414 26.1858 20.4414Z" stroke="#61676B" stroke-width="1.33782" stroke-miterlimit="10"/>
<path d="M33.1174 2H3.88261C2.84212 2 2 3.10547 2 4.47266V24.6328C2 25.9961 2.84212 27.1016 3.88261 27.1016H33.1174C34.1541 27.1016 35 25.9961 35 24.6328V4.47266C35 3.10547 34.1541 2 33.1174 2Z" stroke="#61676B" stroke-width="1.33782" stroke-miterlimit="10"/>
<path d="M21.5747 27.1016L22.4729 35H14.527L15.429 27.1016" stroke="#61676B" stroke-width="1.33782" stroke-linecap="round" stroke-linejoin="round"/>
<path d="M10.8105 35H26.1858" stroke="#61676B" stroke-width="1.33782" stroke-linecap="round" stroke-linejoin="round"/>
<path d="M7.10516 8.71094V18.7734H14.5196V16.0352" stroke="#61676B" stroke-width="1.33782" stroke-linecap="round" stroke-linejoin="round"/>
<path d="M9.57538 11.2227V18.7734" stroke="#61676B" stroke-width="1.33782" stroke-linecap="round" stroke-linejoin="round"/>
<path d="M12.0456 13.7422V18.7734" stroke="#61676B" stroke-width="1.33782" stroke-linecap="round" stroke-linejoin="round"/>
<path d="M26.1857 7.03906V13.4648L21.7131 16.9648" stroke="#61676B" stroke-width="1.33782" stroke-miterlimit="10"/>
<path d="M26.1858 13.4648L31.2947 15.3516" stroke="#61676B" stroke-width="1.33782" stroke-miterlimit="10"/>
<path d="M18.5018 2V5.67578" stroke="#61676B" stroke-width="1.33782" stroke-linecap="round" stroke-linejoin="round"/>
</g>
<defs>
<clipPath id="clip0_10_40">
<rect width="35" height="35" fill="white" transform="translate(0.5 0.5)"/>
</clipPath>
</defs>
</svg>
