<svg width="44" height="35" viewBox="0 0 44 35" fill="none" xmlns="http://www.w3.org/2000/svg">
<path d="M32.7351 19.442C36.4359 19.442 39.4359 16.442 39.4359 12.7412C39.4359 9.04046 36.4359 6.04041 32.7351 6.04041C29.0344 6.04041 26.0343 9.04046 26.0343 12.7412C26.0343 16.442 29.0344 19.442 32.7351 19.442Z" stroke="#61676B" stroke-width="1.5" stroke-miterlimit="10"/>
<path d="M41.8274 1H3.4708C2.10621 1 1 2.10621 1 3.4708V23.6325C1 24.9971 2.10621 26.1033 3.4708 26.1033H41.8274C43.192 26.1033 44.2982 24.9971 44.2982 23.6325V3.4708C44.2982 2.10621 43.192 1 41.8274 1Z" stroke="#61676B" stroke-width="1.5" stroke-miterlimit="10"/>
<path d="M26.6865 26.1033L27.8626 34H22.6541H17.4358L18.6218 26.1033" stroke="#61676B" stroke-width="1.5" stroke-linecap="round" stroke-linejoin="round"/>
<path d="M12.5632 34H32.7348" stroke="#61676B" stroke-width="1.5" stroke-linecap="round" stroke-linejoin="round"/>
<path d="M7.70081 7.71075V17.7718H17.4259V15.0342" stroke="#61676B" stroke-width="1.5" stroke-linecap="round" stroke-linejoin="round"/>
<path d="M10.9425 10.2209V17.7717" stroke="#61676B" stroke-width="1.5" stroke-linecap="round" stroke-linejoin="round"/>
<path d="M14.1843 12.7412V17.7718" stroke="#61676B" stroke-width="1.5" stroke-linecap="round" stroke-linejoin="round"/>
<path d="M32.7349 6.04041V12.4645L26.8643 15.9631" stroke="#61676B" stroke-width="1.5" stroke-miterlimit="10"/>
<path d="M32.735 12.4645L39.4358 14.3522" stroke="#61676B" stroke-width="1.5" stroke-miterlimit="10"/>
<path d="M22.6539 1V4.67654" stroke="#61676B" stroke-width="1.5" stroke-linecap="round" stroke-linejoin="round"/>
</svg>
