<svg width="65" height="65" viewBox="0 0 65 65" fill="none" xmlns="http://www.w3.org/2000/svg">
<path fill-rule="evenodd" clip-rule="evenodd" d="M34.2792 22.5336C33.8376 22.9791 33.8376 23.7013 34.2794 24.1468C34.7213 24.5924 35.4376 24.5923 35.8792 24.1466L36.8132 23.2044C37.1492 22.8656 37.2394 22.3511 37.0389 21.9166C36.4155 20.5661 36.0995 19.1689 36.0995 17.7637C36.0995 14.903 37.3344 12.2086 39.4175 10.3471L39.4211 17.8139C39.4212 18.188 39.6033 18.5383 39.9083 18.7512L45.2755 22.4988C45.6628 22.7691 46.1758 22.7694 46.5632 22.4991L51.9323 18.7534C52.2377 18.5403 52.42 18.1898 52.42 17.8152L52.4192 10.3488C54.502 12.2086 55.7371 14.9008 55.7377 17.7591C55.7377 20.4043 54.7164 22.8913 52.8616 24.7619C51.0083 26.6311 48.5449 27.66 45.9243 27.66H45.9166C45.0149 27.6594 43.2449 27.2192 42.6389 27.0496C42.246 26.9394 41.8245 27.0513 41.5362 27.3419L38.097 30.8099C37.6552 31.2553 37.6552 31.9776 38.097 32.4232C38.318 32.6458 38.6074 32.7573 38.8969 32.7573C39.1863 32.7573 39.476 32.6458 39.6968 32.4232L42.6779 29.417C43.5091 29.6243 44.9376 29.9407 45.9148 29.9414H45.9243C49.1489 29.9413 52.1808 28.6748 54.4614 26.3748C56.7433 24.0734 58 21.0137 58 17.7589C57.999 13.3749 55.6399 9.30953 51.8434 7.14923C51.4933 6.94995 51.0644 6.95303 50.717 7.15755C50.3697 7.36207 50.1562 7.73712 50.1563 8.14274L50.1572 17.2176L45.9195 20.1737L41.6834 17.2155L41.6791 8.14012C41.6788 7.73461 41.4652 7.35968 41.1178 7.15538C40.7705 6.95098 40.3417 6.94813 39.9914 7.14751C36.1954 9.30976 33.8372 13.3776 33.8372 17.7635C33.8372 19.2451 34.1178 20.7127 34.6724 22.1372L34.2792 22.5336ZM31.2839 37.6802L15.5912 53.5044C15.0015 54.0993 14.2176 54.4271 13.3839 54.4277H13.3822C12.5487 54.4275 11.7646 54.1 11.175 53.5055C10.5855 52.9103 10.2613 52.1189 10.2623 51.2765C10.2633 50.4366 10.588 49.6482 11.1783 49.0549L24.676 35.4434C25.1178 34.998 25.1178 34.2758 24.676 33.8303C24.2343 33.3849 23.518 33.3848 23.0762 33.8303L9.57999 47.4406C8.56279 48.4627 8.0017 49.8241 8 51.2739C7.99831 52.726 8.55747 54.0912 9.5749 55.1182C10.5923 56.1442 11.9444 56.709 13.3822 56.709H13.3851C14.823 56.7082 16.1748 56.1428 17.1914 55.1172L32.8837 39.2934C33.3254 38.848 33.3254 38.1258 32.8837 37.6802C32.4419 37.2349 31.7257 37.2349 31.2839 37.6802ZM12.385 50.3004C12.6434 50.0385 12.9934 49.8917 13.366 49.8915H13.3669C13.7393 49.8915 14.0891 50.0378 14.3521 50.3035C14.8932 50.8474 14.8948 51.7377 14.3534 52.2863C14.0804 52.561 13.7228 52.6981 13.3658 52.6981C13.0096 52.6981 12.6539 52.5616 12.383 52.2892L12.3789 52.2849C11.8385 51.7357 11.8412 50.8454 12.385 50.3004ZM50.3511 44.109C50.2339 43.9909 50.0924 43.9003 49.9368 43.8433L46.6928 42.6572L34.9746 30.8411L36.8686 28.9314C37.3103 28.486 37.3104 27.7636 36.8686 27.3181C36.5333 26.9802 36.04 26.8985 35.6284 27.0735L17.9041 9.20346C16.8321 8.11903 15.4045 7.52086 13.8842 7.51904H13.8777C12.3574 7.51904 10.9285 8.11515 9.85321 9.1981C8.77663 10.2837 8.1842 11.7264 8.1851 13.2606C8.1859 14.7935 8.77877 16.2349 9.85423 17.3187L27.5789 35.1903C27.4053 35.6051 27.486 36.1026 27.8213 36.4407C28.2632 36.886 28.9795 36.8863 29.4211 36.4407L31.3147 34.5313L43.033 46.3472L44.2093 49.6184C44.2658 49.7754 44.3558 49.9181 44.473 50.0361L51.0481 56.6661C51.2691 56.8887 51.5585 57.0001 51.848 57.0001C52.1374 57.0001 52.4271 56.8887 52.6479 56.6661L56.9261 52.3522C57.1382 52.1381 57.2575 51.8481 57.2575 51.5456C57.2575 51.2431 57.1382 50.953 56.9261 50.739L50.3511 44.109ZM32.5747 30.0345L32.5674 30.0419L29.12 33.5181L11.4538 15.7053C10.8054 15.0519 10.448 14.1833 10.4476 13.2594C10.4471 12.335 10.8041 11.4656 11.4526 10.8118C12.1002 10.1595 12.9613 9.80048 13.8777 9.80048H13.8816C14.7971 9.80151 15.6564 10.1615 16.3028 10.8153L33.9698 28.6279L32.582 30.0272L32.5747 30.0345ZM51.848 54.2463L46.2507 48.6024L45.0743 45.3311C45.0179 45.1742 44.9279 45.0315 44.8107 44.9134L32.9146 32.9182L33.3748 32.4543L45.2708 44.4496C45.388 44.5677 45.5294 44.6584 45.6851 44.7154L48.9291 45.9015L54.5264 51.5455L51.848 54.2463ZM13.0723 12.446C13.5141 12.0007 14.2303 12.0007 14.6721 12.446L30.2775 28.1814C30.7193 28.627 30.7193 29.3493 30.2775 29.7947C30.0567 30.0173 29.7671 30.1288 29.4777 30.1288C29.1881 30.1288 28.8986 30.0173 28.6778 29.7947L13.0723 14.0593C12.6306 13.6137 12.6306 12.8915 13.0723 12.446Z" fill="black"/>
</svg>
