<svg width="55" height="56" viewBox="0 0 55 56" fill="none" xmlns="http://www.w3.org/2000/svg">
<path fill-rule="evenodd" clip-rule="evenodd" d="M28.9071 17.4498C28.4213 17.9358 28.4213 18.7236 28.9073 19.2096C29.3934 19.6957 30.1813 19.6956 30.6671 19.2094L31.6945 18.1816C32.0641 17.8119 32.1633 17.2507 31.9427 16.7767C31.257 15.3034 30.9094 13.7792 30.9094 12.2463C30.9094 9.12554 32.2678 6.18626 34.5592 4.15548L34.5631 12.3011C34.5633 12.7092 34.7636 13.0913 35.0991 13.3236L41.003 17.4118C41.429 17.7067 41.9933 17.707 42.4194 17.4121L48.3254 13.326C48.6614 13.0935 48.8619 12.7111 48.8619 12.3025L48.861 4.15735C51.1521 6.18626 52.5107 9.12318 52.5114 12.2413C52.5114 15.1269 51.3879 17.84 49.3477 19.8806C47.309 21.9197 44.5993 23.0422 41.7167 23.0422H41.7082C40.7163 23.0415 38.7693 22.5613 38.1027 22.3763C37.6705 22.2561 37.2069 22.3781 36.8897 22.6952L33.1066 26.4784C32.6207 26.9643 32.6207 27.7522 33.1066 28.2383C33.3497 28.4812 33.6681 28.6028 33.9865 28.6028C34.3049 28.6028 34.6235 28.4812 34.8664 28.2383L38.1456 24.9589C39.0599 25.185 40.6313 25.5302 41.7062 25.5309H41.7167C45.2637 25.5308 48.5988 24.1492 51.1074 21.6401C53.6175 19.1295 54.9999 15.7917 54.9999 12.241C54.9988 7.45849 52.4038 3.02362 48.2277 0.666941C47.8425 0.449553 47.3708 0.452912 46.9886 0.676024C46.6066 0.899137 46.3717 1.30828 46.3718 1.75077L46.3728 11.6505L41.7114 14.8753L37.0517 11.6483L37.0469 1.74791C37.0466 1.30554 36.8116 0.896524 36.4295 0.67366C36.0475 0.450672 35.5758 0.447562 35.1905 0.665074C31.0149 3.02387 28.4209 7.46147 28.4209 12.2461C28.4209 13.8623 28.7295 15.4633 29.3396 17.0173L28.9071 17.4498ZM25.6122 33.9732L8.35035 51.2358C7.70167 51.8848 6.83933 52.2424 5.92225 52.2431H5.92038C5.00354 52.2429 4.14108 51.8856 3.49253 51.237C2.84409 50.5878 2.48746 49.7244 2.48858 48.8054C2.48958 47.8892 2.84683 47.0291 3.49613 46.3819L18.3436 31.5331C18.8295 31.0472 18.8295 30.2594 18.3436 29.7733C17.8577 29.2875 17.0698 29.2874 16.5838 29.7734L1.73799 44.6208C0.619069 45.7359 0.00187076 47.221 4.23565e-06 48.8026C-0.00186229 50.3867 0.613221 51.876 1.73239 52.9964C2.85156 54.1156 4.33881 54.7318 5.92038 54.7318H5.92361C7.50531 54.7309 8.99231 54.1141 10.1105 52.9953L27.372 35.7331C27.8579 35.2472 27.8579 34.4593 27.372 33.9732C26.886 33.4874 26.0982 33.4874 25.6122 33.9732ZM4.82351 47.7406C5.10772 47.4549 5.49272 47.2948 5.90261 47.2945H5.90361C6.31325 47.2945 6.698 47.4541 6.98731 47.744C7.58249 48.3373 7.58423 49.3086 6.98868 49.907C6.68842 50.2067 6.29508 50.3563 5.90236 50.3563C5.51052 50.3563 5.11929 50.2074 4.82127 49.9102L4.81679 49.9055C4.22237 49.3064 4.22535 48.3351 4.82351 47.7406ZM46.5861 40.9864C46.4572 40.8576 46.3016 40.7587 46.1304 40.6965L42.562 39.4026L29.672 26.5124L31.7554 24.4291C32.2413 23.9432 32.2414 23.1552 31.7554 22.6692C31.3866 22.3006 30.8439 22.2115 30.3912 22.4024L10.8945 2.90791C9.71531 1.7249 8.14494 1.07236 6.47266 1.07037H6.46544C4.79316 1.07037 3.22129 1.72067 2.03853 2.90206C0.854286 4.08631 0.202619 5.66016 0.203614 7.33382C0.204485 9.0061 0.85665 10.5785 2.03965 11.7608L21.5367 31.257C21.3458 31.7095 21.4346 32.2522 21.8034 32.621C22.2895 33.1068 23.0774 33.1071 23.5632 32.621L25.6461 30.5381L38.5362 43.4281L39.8302 46.9966C39.8923 47.1679 39.9913 47.3235 40.1202 47.4523L47.3528 54.6849C47.5959 54.9278 47.9143 55.0493 48.2327 55.0493C48.5511 55.0493 48.8697 54.9278 49.1126 54.6849L53.8186 49.9789C54.0519 49.7454 54.1831 49.429 54.1831 49.099C54.1831 48.769 54.0519 48.4525 53.8186 48.2191L46.5861 40.9864ZM27.0321 25.6325L27.0241 25.6406L23.232 29.4328L3.79917 10.0008C3.08591 9.28795 2.69281 8.34037 2.69232 7.33257C2.69182 6.32415 3.08454 5.3757 3.7978 4.66244C4.51019 3.9508 5.45739 3.5592 6.46544 3.5592H6.46979C7.47685 3.56032 8.42206 3.95304 9.13308 4.6663L28.5667 24.098L27.0402 25.6245L27.0321 25.6325ZM48.2327 52.0452L42.0757 45.8882L40.7817 42.3196C40.7196 42.1484 40.6206 41.9927 40.4917 41.8639L27.406 28.7783L27.9122 28.2723L40.9978 41.358C41.1267 41.4868 41.2823 41.5857 41.4535 41.6479L45.0219 42.9418L51.179 49.0989L48.2327 52.0452ZM5.57953 6.44522C6.06545 5.95942 6.85337 5.95942 7.33929 6.44522L24.5052 23.611C24.9912 24.0971 24.9912 24.885 24.5052 25.3709C24.2623 25.6138 23.9438 25.7354 23.6254 25.7354C23.3069 25.7354 22.9884 25.6138 22.7455 25.3709L5.57953 8.2051C5.09361 7.71906 5.09361 6.93114 5.57953 6.44522Z" fill="#03002C"/>
</svg>
