<svg width="65" height="65" viewBox="0 0 65 65" fill="none" xmlns="http://www.w3.org/2000/svg">
<path fill-rule="evenodd" clip-rule="evenodd" d="M32.9897 20.5862C27.0371 20.5862 22.1853 25.4716 22.1853 31.5103V43.3695H43.794V32.3058L43.7736 32.2955V31.5001C43.7736 28.4818 42.5743 25.7645 40.6107 23.7793C38.6541 21.8115 35.95 20.5862 32.9897 20.5862ZM19.5991 31.5103C19.5991 24.068 25.5841 18 32.9897 18C36.6772 18 40.0315 19.528 42.4461 21.9573L42.4482 21.9594C44.699 24.2343 46.1386 27.2929 46.3364 30.6928L46.3802 30.7149V31.5103V43.3797H54.4603C56.0612 43.3797 57.2976 44.4885 57.7753 45.8972H58V47.1903V53.7767C58 55.7487 56.5365 57.5872 54.4704 57.5872H11.5296C9.43284 57.5872 8 55.7268 8 53.7767V47.1903C8 45.2263 9.43605 43.3797 11.5296 43.3797H19.5991V31.5103ZM11.5296 45.9659C11.1427 45.9659 10.5862 46.3595 10.5862 47.1903V53.7767C10.5862 54.6009 11.1459 55.001 11.5296 55.001H54.4704C54.8441 55.001 55.4138 54.5996 55.4138 53.7767V48.4835H55.4036V47.1903C55.4036 46.3741 54.8308 45.9659 54.4603 45.9659H11.5296ZM26.8721 30.5341C26.8721 27.7534 29.1004 25.5286 31.8107 25.5286C32.5248 25.5286 33.1038 24.9496 33.1038 24.2355C33.1038 23.5213 32.5248 22.9424 31.8107 22.9424C27.6488 22.9424 24.2859 26.3484 24.2859 30.5341C24.2859 31.2484 24.8648 31.8272 25.579 31.8272C26.2931 31.8272 26.8721 31.2484 26.8721 30.5341Z" fill="black"/>
</svg>
