<svg width="59" height="46" viewBox="0 0 59 46" fill="none" xmlns="http://www.w3.org/2000/svg">
<path fill-rule="evenodd" clip-rule="evenodd" d="M29.488 3C22.583 3 16.9549 8.66705 16.9549 15.672V29.4286H42.021V16.5947L41.9974 16.5828V15.6601C41.9974 12.1589 40.6062 9.00681 38.3284 6.70399C36.0588 4.42133 32.922 3 29.488 3ZM13.9549 15.672C13.9549 7.03887 20.8976 0 29.488 0C33.7655 0 37.6565 1.77246 40.4575 4.59044L40.4599 4.59292C43.0708 7.23184 44.7408 10.7798 44.9702 14.7237L45.021 14.7493V15.672V29.4405H54.3939C56.251 29.4405 57.6852 30.7267 58.2393 32.3608H58.5V33.8608V41.501C58.5 43.7885 56.8023 45.9212 54.4057 45.9212H4.59434C2.1621 45.9212 0.5 43.7631 0.5 41.501V33.8608C0.5 31.5825 2.16582 29.4405 4.59434 29.4405H13.9549V15.672ZM4.59434 32.4405C4.14551 32.4405 3.5 32.897 3.5 33.8608V41.501C3.5 42.4571 4.14922 42.9212 4.59434 42.9212H54.4057C54.8392 42.9212 55.5 42.4555 55.5 41.501V35.3608H55.4882V33.8608C55.4882 32.914 54.8237 32.4405 54.3939 32.4405H4.59434ZM22.3916 14.5396C22.3916 11.3139 24.9765 8.73315 28.1204 8.73315C28.9488 8.73315 29.6204 8.06158 29.6204 7.23315C29.6204 6.40473 28.9488 5.73315 28.1204 5.73315C23.2926 5.73315 19.3916 9.68416 19.3916 14.5396C19.3916 15.3681 20.0632 16.0396 20.8916 16.0396C21.72 16.0396 22.3916 15.3681 22.3916 14.5396Z" fill="#221F45"/>
</svg>
