<svg width="41" height="41" viewBox="0 0 41 41" fill="none" xmlns="http://www.w3.org/2000/svg">
<path d="M39.81 11.22C39.81 14.03 38.67 16.57 36.85 18.41C35 20.28 32.43 21.44 29.59 21.44C26.75 21.44 24.07 20.24 22.21 18.3C20.45 16.47 19.36 13.97 19.36 11.22C19.36 5.57 23.94 1 29.59 1C35.24 1 39.81 5.58 39.81 11.22Z" stroke="#61676B" stroke-width="1.5" stroke-miterlimit="10"/>
<path d="M29.51 13.01C31.4375 13.01 33 11.4475 33 9.52003C33 7.59255 31.4375 6.03003 29.51 6.03003C27.5825 6.03003 26.02 7.59255 26.02 9.52003C26.02 11.4475 27.5825 13.01 29.51 13.01Z" stroke="#61676B" stroke-width="1.5" stroke-miterlimit="10"/>
<path d="M36.85 18.41C35 20.28 32.43 21.44 29.59 21.44C26.75 21.44 24.07 20.24 22.21 18.3C23.22 15.23 26.1 13.02 29.5 13.02C32.9 13.02 35.87 15.29 36.84 18.42L36.85 18.41Z" stroke="#61676B" stroke-width="1.5" stroke-miterlimit="10"/>
<path d="M13.5 30.25C16.7917 30.25 19.46 27.5816 19.46 24.29C19.46 20.9983 16.7917 18.33 13.5 18.33C10.2084 18.33 7.54004 20.9983 7.54004 24.29C7.54004 27.5816 10.2084 30.25 13.5 30.25Z" stroke="#61676B" stroke-width="1.5" stroke-miterlimit="10"/>
<path d="M26.01 39.44C24.35 34.11 19.37 30.24 13.49 30.24C7.61005 30.24 3.02005 34.27 1.30005 39.5L26.01 39.45V39.44Z" stroke="#61676B" stroke-width="1.5" stroke-linecap="round" stroke-linejoin="round"/>
<path d="M28.8101 39.4399H39.8101" stroke="#61676B" stroke-width="1.5" stroke-linecap="round" stroke-linejoin="round"/>
<path d="M28.8101 36.15H39.8101" stroke="#61676B" stroke-width="1.5" stroke-linecap="round" stroke-linejoin="round"/>
<path d="M28.8101 32.86H39.8101" stroke="#61676B" stroke-width="1.5" stroke-linecap="round" stroke-linejoin="round"/>
<path d="M28.8101 29.5701H39.8101" stroke="#61676B" stroke-width="1.5" stroke-linecap="round" stroke-linejoin="round"/>
<path d="M28.8101 26.28H39.8101" stroke="#61676B" stroke-width="1.5" stroke-linecap="round" stroke-linejoin="round"/>
</svg>
