<svg width="36" height="36" viewBox="0 0 36 36" fill="none" xmlns="http://www.w3.org/2000/svg">
<g clip-path="url(#clip0_10_52)">
<path d="M34.0117 10.7589C34.0117 13.1674 33.035 15.3443 31.4739 16.9212C29.8892 18.5255 27.6847 19.5179 25.2488 19.5179C22.8169 19.5179 20.5183 18.4902 18.9258 16.8271C17.4156 15.2581 16.4821 13.1164 16.4821 10.7589C16.4821 5.91466 20.4085 2 25.2488 2C30.0931 2 34.0117 5.9225 34.0117 10.7589Z" stroke="#61676B" stroke-width="1.28049" stroke-miterlimit="10"/>
<path d="M25.1822 12.2927C26.8336 12.2927 28.1751 10.9552 28.1751 9.29986C28.1751 7.64849 26.8336 6.31091 25.1822 6.31091C23.5308 6.31091 22.1893 7.64849 22.1893 9.29986C22.1893 10.9552 23.5308 12.2927 25.1822 12.2927Z" stroke="#61676B" stroke-width="1.28049" stroke-miterlimit="10"/>
<path d="M31.4739 16.9211C29.8892 18.5254 27.6848 19.5178 25.2489 19.5178C22.817 19.5178 20.5184 18.4901 18.9258 16.827C19.7888 14.195 22.26 12.3004 25.1744 12.3004C28.0888 12.3004 30.6345 14.246 31.4661 16.929L31.4739 16.9211Z" stroke="#61676B" stroke-width="1.28049" stroke-miterlimit="10"/>
<path d="M11.4574 27.0726C14.2816 27.0726 16.5684 24.7858 16.5684 21.9616C16.5684 19.1413 14.2816 16.8545 11.4574 16.8545C8.6371 16.8545 6.35028 19.1413 6.35028 21.9616C6.35028 24.7858 8.6371 27.0726 11.4574 27.0726Z" stroke="#61676B" stroke-width="1.28049" stroke-miterlimit="10"/>
<path d="M22.1815 34.9489C20.7576 30.3792 16.49 27.0647 11.4495 27.0647C6.40913 27.0647 2.47486 30.5165 1 34.9999L22.1815 34.9568V34.9489Z" stroke="#61676B" stroke-width="1.28049" stroke-linecap="round" stroke-linejoin="round"/>
<path d="M24.5821 34.949H34.0118" stroke="#61676B" stroke-width="1.28049" stroke-linecap="round" stroke-linejoin="round"/>
<path d="M24.5821 32.1287H34.0118" stroke="#61676B" stroke-width="1.28049" stroke-linecap="round" stroke-linejoin="round"/>
<path d="M24.5821 29.3085H34.0118" stroke="#61676B" stroke-width="1.28049" stroke-linecap="round" stroke-linejoin="round"/>
<path d="M24.5821 26.4882H34.0118" stroke="#61676B" stroke-width="1.28049" stroke-linecap="round" stroke-linejoin="round"/>
<path d="M24.5821 23.6678H34.0118" stroke="#61676B" stroke-width="1.28049" stroke-linecap="round" stroke-linejoin="round"/>
</g>
<defs>
<clipPath id="clip0_10_52">
<rect width="35" height="35" fill="white" transform="translate(0.5 0.5)"/>
</clipPath>
</defs>
</svg>
